<svg xmlns="http://www.w3.org/2000/svg" version="1.1" xmlns:xlink="http://www.w3.org/1999/xlink" xmlns:svgjs="http://svgjs.dev/svgjs" width="2000" height="2007" viewBox="0 0 2000 2007"><g transform="matrix(1,0,0,1,0,-3.569988153429108)"><svg viewBox="0 0 280 281" data-background-color="#ffffff" preserveAspectRatio="xMidYMid meet" height="2007" width="2000" xmlns="http://www.w3.org/2000/svg" xmlns:xlink="http://www.w3.org/1999/xlink"><g id="tight-bounds" transform="matrix(1,0,0,1,0,0.5000891621824337)"><svg viewBox="0 0 280 280" height="280" width="280"><g><svg viewBox="0 0 280 280" height="280" width="280"><g><svg viewBox="0 0 280 280" height="280" width="280"><g id="textblocktransform"><svg viewBox="0 0 280 280" height="280" width="280" id="textblock"><g><svg viewBox="0 0 280 280" height="280" width="280"><g transform="matrix(1,0,0,1,74.00336708925556,74.01427182235625)"><svg viewBox="0 0 131.99326582148888 131.9714563552875" height="131.9714563552875" width="131.99326582148888"><g id="icon-0"><svg xmlns="http://www.w3.org/2000/svg" xmlns:xlink="http://www.w3.org/1999/xlink" version="1.1" x="0" y="0" viewBox="2 2.00392955182452 48.00000156803488 47.99207044817548" enable-background="new 0 0 52 52" xml:space="preserve" height="131.9714563552875" width="131.99326582148888" class="icon-jxe-0" data-fill-palette-color="accent" id="jxe-0"><g fill="#e33e33" data-fill-palette-color="accent"><g fill="#e33e33" data-fill-palette-color="accent"><path d="M36 49.996H6C3.794 49.996 2 48.202 2 45.996V25.996C2 23.791 3.794 21.996 6 21.996H36C38.206 21.996 40 23.791 40 25.996V45.996C40 48.202 38.206 49.996 36 49.996M6 23.996C4.897 23.996 4 24.893 4 25.996V45.996C4 47.1 4.897 47.996 6 47.996H36C37.103 47.996 38 47.1 38 45.996V25.996C38 24.893 37.103 23.996 36 23.996z" fill="#e33e33" data-fill-palette-color="accent"></path></g><g fill="#e33e33" data-fill-palette-color="accent"><path d="M29 45.996H13C11.897 45.996 11 45.1 11 43.996V27.996C11 26.893 11.897 25.996 13 25.996H29C30.103 25.996 31 26.893 31 27.996V43.996C31 45.1 30.103 45.996 29 45.996M13 27.996V43.996H29.001L29 27.996z" fill="#e33e33" data-fill-palette-color="accent"></path></g><g fill="#e33e33" data-fill-palette-color="accent"><path d="M18 40.996A1 1 0 0 1 17 39.996V31.996A1 1 0 0 1 18.447 31.102L26.447 35.102A1 1 0 0 1 26.447 36.89L18.447 40.89C18.307 40.96 18.153 40.996 18 40.996M19 33.614V38.378L23.764 35.996z" fill="#e33e33" data-fill-palette-color="accent"></path></g><g fill="#e33e33" data-fill-palette-color="accent"><path d="M49 47.996C48.875 47.996 48.749 47.973 48.628 47.925L38.628 43.925A1 1 0 0 1 38 42.996V28.996C38 28.587 38.249 28.22 38.628 28.067L48.628 24.067A1 1 0 0 1 50 24.997V46.996A1 1 0 0 1 49 47.996M40 42.32L48 45.519V26.473L40 29.673z" fill="#e33e33" data-fill-palette-color="accent"></path></g><g fill="#e33e33" data-fill-palette-color="accent"><path d="M37.314 8.683A1 1 0 0 1 36.607 8.39C30.758 2.54 21.242 2.542 15.394 8.39A1 1 0 1 1 13.979 6.976 16.9 16.9 0 0 1 26 2.004C30.546 2.004 34.815 3.77 38.021 6.976A1 1 0 0 1 37.314 8.683" fill="#e33e33" data-fill-palette-color="accent"></path></g><g fill="#e33e33" data-fill-palette-color="accent"><path d="M33.778 13.218A1 1 0 0 1 33.071 12.925C31.186 11.04 28.674 10.001 26 10.001S20.814 11.04 18.93 12.925A1 1 0 1 1 17.514 11.511C19.778 9.248 22.792 8.001 26 8.001S32.222 9.248 34.485 11.511A1 1 0 0 1 33.778 13.218" fill="#e33e33" data-fill-palette-color="accent"></path></g><g fill="#e33e33" data-fill-palette-color="accent"><path d="M30.243 17.754A1 1 0 0 1 29.536 17.46 5.006 5.006 0 0 0 22.464 17.46 1 1 0 1 1 21.05 16.047 7.007 7.007 0 0 1 30.95 16.047 1 1 0 0 1 30.243 17.754" fill="#e33e33" data-fill-palette-color="accent"></path></g></g></svg></g></svg></g><g id="text-0"><path d="M24.44 102.559v0c-0.333 1.032-0.799 1.945-1.398 2.737-0.592 0.795-1.256 1.381-1.991 1.758-0.744 0.381-1.506 0.446-2.287 0.194v0c-0.417-0.134-0.78-0.368-1.089-0.702-0.309-0.333-0.388-0.735-0.236-1.205v0c0.081-0.251 0.236-0.494 0.464-0.727v0c0.44-0.413 0.905-0.972 1.396-1.675 0.49-0.704 0.875-1.489 1.154-2.357v0c0.316-0.979 0.456-1.891 0.422-2.734-0.037-0.837-0.307-1.337-0.809-1.5v0c-0.39-0.126-0.76 0.069-1.109 0.585-0.356 0.514-0.846 1.411-1.472 2.692v0c-0.469 0.864-0.952 1.695-1.449 2.491-0.502 0.788-1.116 1.375-1.84 1.763-0.722 0.381-1.615 0.399-2.681 0.056v0c-1.032-0.333-1.936-0.939-2.712-1.817-0.78-0.887-1.307-2.007-1.58-3.359-0.273-1.352-0.144-2.848 0.385-4.489v0c0.28-0.867 0.649-1.672 1.108-2.415 0.454-0.752 0.962-1.33 1.523-1.733 0.561-0.403 1.136-0.51 1.725-0.321v0c0.503 0.162 0.906 0.486 1.21 0.972 0.304 0.485 0.514 0.999 0.632 1.54 0.115 0.549 0.124 0.975 0.026 1.28v0c-0.073 0.225-0.31 0.441-0.713 0.646v0c-0.544 0.35-0.984 0.786-1.32 1.306-0.338 0.527-0.596 1.068-0.775 1.624v0c-0.271 0.84-0.364 1.559-0.279 2.156 0.085 0.597 0.323 0.959 0.713 1.085v0c0.357 0.115 0.719-0.009 1.084-0.374 0.364-0.358 0.699-0.841 1.005-1.451 0.3-0.612 0.587-1.199 0.864-1.759v0c0.746-1.542 1.544-2.702 2.393-3.48 0.848-0.771 1.957-0.936 3.326-0.494v0c1.059 0.341 2.014 0.982 2.865 1.921 0.853 0.933 1.435 2.074 1.745 3.423 0.303 1.347 0.203 2.801-0.3 4.363z" fill="#e33e33" data-fill-palette-color="primary"></path><path d="M33.738 81.059v0c-0.847 1.574-1.978 2.422-3.394 2.544-1.416 0.122-2.95-0.261-4.603-1.151v0c-0.594-0.32-1.154-0.664-1.682-1.035-0.536-0.368-1.068-0.744-1.594-1.13v0c-0.527-0.386-1.04-0.761-1.539-1.124-0.502-0.373-0.985-0.715-1.448-1.028v0c-0.137 0.621-0.352 1.204-0.645 1.749v0c-0.306 0.569-0.692 0.729-1.158 0.479v0c-0.49-0.264-0.971-0.807-1.444-1.63-0.473-0.823-0.879-1.748-1.219-2.775-0.342-1.037-0.576-2.011-0.701-2.923-0.122-0.918-0.058-1.61 0.193-2.076v0c0.306-0.569 0.949-0.591 1.929-0.063v0c0.257 0.138 0.509 0.301 0.755 0.489 0.256 0.185 0.511 0.378 0.767 0.578v0c0.159-0.546 0.337-1.09 0.534-1.631 0.191-0.545 0.411-1.05 0.661-1.515v0c0.32-0.594 0.671-0.997 1.054-1.21 0.373-0.21 0.857-0.155 1.45 0.165v0c0.625 0.336 1.167 0.817 1.628 1.444 0.457 0.633 0.588 1.13 0.394 1.491v0c-0.04 0.073-0.121 0.195-0.245 0.366-0.12 0.164-0.277 0.36-0.47 0.588v0c-0.261 0.294-0.568 0.681-0.921 1.162-0.356 0.471-0.729 1.068-1.118 1.791v0c0.703 0.615 1.436 1.219 2.2 1.811 0.763 0.592 1.481 1.069 2.155 1.431v0c1.494 0.804 2.714 0.979 3.661 0.525 0.944-0.463 1.798-1.405 2.562-2.825v0c0.234-0.435 0.471-0.706 0.71-0.814 0.242-0.099 0.544-0.051 0.906 0.144v0c0.851 0.458 1.338 1.284 1.461 2.479 0.123 1.195-0.157 2.426-0.839 3.694z" fill="#e33e33" data-fill-palette-color="primary"></path><path d="M42.574 67.247v0c-0.287 0.367-0.58 0.61-0.877 0.731-0.297 0.12-0.571 0.03-0.821-0.272v0c-0.789-1.033-1.632-2.038-2.527-3.014-0.886-0.977-1.803-1.836-2.75-2.578v0c-1.226-0.96-2.179-1.588-2.858-1.881-0.684-0.288-1.236-0.395-1.658-0.319-0.42 0.086-0.832 0.267-1.234 0.544v0c-0.194 0.113-0.398 0.187-0.612 0.223-0.214 0.036-0.424-0.028-0.632-0.191v0c-0.323-0.253-0.583-0.66-0.78-1.22-0.193-0.566-0.254-1.192-0.183-1.88 0.076-0.683 0.349-1.325 0.821-1.927v0c0.613-0.783 1.313-1.118 2.099-1.005 0.786 0.113 1.617 0.512 2.493 1.198v0c-0.599-1.141-0.929-2.23-0.991-3.267-0.062-1.037 0.268-2.016 0.988-2.935v0c0.489-0.624 1.036-1.035 1.64-1.232 0.605-0.197 1.217-0.054 1.836 0.431v0c0.624 0.489 1.048 1.148 1.272 1.977 0.225 0.829 0.176 1.449-0.145 1.86v0c-0.056 0.071-0.131 0.145-0.226 0.221-0.095 0.076-0.214 0.11-0.359 0.103v0c-0.603 0.014-1.075 0.24-1.418 0.677v0c-0.527 0.673-0.55 1.605-0.07 2.794 0.477 1.195 1.47 2.424 2.981 3.687v0c0.596 0.423 1.199 0.865 1.81 1.325 0.605 0.456 1.047 0.794 1.326 1.013v0c0.854 0.669 1.371 1.458 1.551 2.367 0.184 0.904-0.041 1.761-0.676 2.57z" fill="#e33e33" data-fill-palette-color="primary"></path><path d="M58.731 49.797v0c-1.646 1.497-3.359 2.191-5.141 2.082-1.782-0.099-3.442-0.995-4.981-2.686v0c-1.399-1.538-2.334-3.243-2.807-5.117-0.472-1.873-0.479-3.699-0.022-5.478 0.463-1.784 1.377-3.296 2.74-4.537v0c1.301-1.184 2.633-1.812 3.995-1.885 1.362-0.073 2.527 0.422 3.495 1.487v0c0.767 0.843 1.219 1.861 1.354 3.054 0.126 1.192-0.052 2.392-0.532 3.6-0.486 1.212-1.261 2.303-2.325 3.271v0c-1.301 1.184-2.63 1.857-3.986 2.018v0c0.928 0.979 2 1.47 3.215 1.474 1.216 0.003 2.343-0.467 3.382-1.412v0c0.627-0.571 1.17-1.271 1.627-2.101 0.458-0.83 0.745-1.655 0.863-2.477v0c0.065-0.538 0.228-0.927 0.491-1.165v0c0.216-0.196 0.462-0.288 0.736-0.275 0.265 0.013 0.496 0.127 0.693 0.343v0c0.435 0.478 0.597 1.483 0.485 3.012v0c-0.192 2.713-1.286 4.976-3.282 6.792zM52.27 41.703v0c0.777-0.706 1.28-1.46 1.51-2.262 0.22-0.802 0.103-1.452-0.351-1.951v0c-0.374-0.411-0.839-0.571-1.394-0.479-0.55 0.087-1.129 0.407-1.736 0.959v0c-0.802 0.73-1.31 1.577-1.523 2.541-0.213 0.964-0.104 1.947 0.325 2.946v0c0.481-0.081 1.01-0.284 1.587-0.611 0.577-0.327 1.104-0.708 1.582-1.143z" fill="#e33e33" data-fill-palette-color="primary"></path><path d="M76.958 36.365v0c-1.524 0.879-3.024 1.11-4.5 0.694-1.476-0.416-2.729-1.516-3.757-3.298v0c-0.73-1.265-1.208-2.67-1.434-4.218-0.232-1.544-0.172-3.095 0.179-4.655 0.356-1.554 1.017-3.015 1.986-4.384 0.964-1.375 2.272-2.539 3.921-3.491v0c1.524-0.879 2.978-1.369 4.365-1.471 1.377-0.104 2.322 0.29 2.837 1.181v0c0.132 0.229 0.277 0.543 0.434 0.941 0.164 0.395 0.273 0.73 0.327 1.004v0c0.046 0.246 0.046 0.491 0.001 0.733-0.047 0.252-0.185 0.444-0.414 0.576v0c-0.096 0.056-0.309 0.126-0.637 0.211v0c0.203 0.589 0.429 1.153 0.676 1.693 0.238 0.537 0.502 1.059 0.795 1.565v0c0.559 0.97 1.202 1.743 1.928 2.319 0.72 0.58 1.566 0.71 2.537 0.39v0c0.257-0.084 0.484-0.115 0.681-0.092 0.198 0.022 0.392 0.199 0.583 0.53v0c0.16 0.277 0.296 0.672 0.407 1.186 0.112 0.513 0.068 1.057-0.131 1.629-0.193 0.569-0.657 1.066-1.393 1.49v0c-0.994 0.573-1.966 0.649-2.916 0.226-0.953-0.413-1.817-1.292-2.591-2.635v0c0.029 1.637-0.255 3.153-0.854 4.551-0.599 1.397-1.609 2.505-3.03 3.325zM75.889 31.696v0c1.018-0.587 1.73-1.419 2.136-2.497 0.409-1.087 0.552-2.237 0.429-3.45v0c-0.074-0.768-0.244-1.557-0.51-2.366-0.26-0.813-0.572-1.589-0.934-2.327v0c-0.552 0.045-1.141 0.165-1.768 0.358-0.633 0.197-1.254 0.47-1.862 0.821v0c-1.554 0.896-2.568 2.088-3.043 3.574-0.478 1.496-0.32 2.93 0.472 4.303v0c0.587 1.018 1.34 1.675 2.258 1.972 0.918 0.297 1.859 0.168 2.822-0.388z" fill="#e33e33" data-fill-palette-color="primary"></path><path d="M98.196 26.084v0c-1.016 0.265-1.559 0.044-1.628-0.664v0c-0.001-1.3-0.063-2.61-0.184-3.929-0.113-1.314-0.321-2.553-0.625-3.717v0c-0.393-1.507-0.771-2.583-1.133-3.229-0.369-0.644-0.744-1.063-1.125-1.259-0.386-0.187-0.823-0.292-1.311-0.315v0c-0.216-0.03-0.423-0.094-0.622-0.194-0.192-0.101-0.321-0.279-0.387-0.535v0c-0.104-0.397-0.06-0.879 0.129-1.445 0.183-0.565 0.518-1.101 1.003-1.609 0.494-0.502 1.108-0.849 1.841-1.041v0c0.969-0.253 1.725-0.094 2.269 0.476 0.537 0.571 0.946 1.395 1.227 2.471v0c0.186 0.713 0.322 1.525 0.409 2.437 0.089 0.918 0.154 1.749 0.197 2.492v0l0.104 0.027c0.058-1.625 0.253-3.163 0.586-4.615 0.334-1.445 0.876-2.689 1.624-3.732 0.742-1.041 1.735-1.724 2.979-2.049v0c1.278-0.333 2.4-0.166 3.364 0.503 0.96 0.677 1.658 1.853 2.095 3.527v0l0.242 0.929c0.377-1.945 1.002-3.653 1.876-5.124 0.874-1.471 2.145-2.424 3.813-2.859v0c1.366-0.356 2.55-0.18 3.554 0.528 1.004 0.708 1.684 1.745 2.04 3.111v0c0.14 0.538 0.218 1.071 0.234 1.599 0.014 0.521 0.013 1.042-0.002 1.563v0c0.003 0.481 0.011 0.978 0.023 1.493 0.012 0.514 0.081 1.014 0.207 1.497v0c0.444 1.702 1.455 2.617 3.033 2.745v0c0.225 0.035 0.407 0.088 0.548 0.159 0.134 0.073 0.234 0.237 0.301 0.492v0c0.067 0.256 0.085 0.642 0.054 1.161-0.028 0.525-0.214 1.051-0.558 1.579-0.35 0.53-0.95 0.905-1.797 1.126v0c-1.11 0.289-2.066 0.108-2.869-0.545-0.809-0.651-1.377-1.602-1.703-2.854v0c-0.163-0.626-0.276-1.293-0.339-2.003-0.063-0.709-0.092-1.399-0.087-2.068v0c-0.006-0.602-0.025-1.172-0.058-1.709-0.032-0.538-0.097-0.991-0.193-1.362v0c-0.177-0.679-0.471-1.131-0.881-1.354-0.405-0.232-0.877-0.278-1.416-0.138v0c-0.908 0.237-1.651 0.736-2.228 1.498-0.572 0.753-1.02 1.656-1.341 2.71-0.315 1.052-0.53 2.168-0.647 3.348v0c0.094 0.249 0.201 0.576 0.321 0.983 0.127 0.405 0.232 0.766 0.315 1.082v0c0.14 0.538 0.251 1.113 0.331 1.724 0.082 0.618 0.077 1.151-0.014 1.599v0c-0.088 0.598-0.306 1.125-0.655 1.582-0.356 0.452-0.901 0.774-1.634 0.966v0c-0.316 0.082-0.632 0.097-0.948 0.042-0.316-0.054-0.511-0.222-0.585-0.505v0c-0.03-0.114-0.076-0.637-0.139-1.569-0.058-0.94-0.174-2.085-0.346-3.435-0.172-1.349-0.421-2.649-0.748-3.9v0c-0.354-1.359-0.741-2.264-1.161-2.715-0.419-0.451-0.912-0.603-1.476-0.456v0c-0.713 0.186-1.312 0.658-1.797 1.417-0.483 0.765-0.865 1.684-1.146 2.756-0.281 1.072-0.476 2.168-0.586 3.29-0.117 1.123-0.175 2.154-0.174 3.095v0l0.121 0.464c0.274 1.05 0.206 1.99-0.202 2.823-0.401 0.83-1.1 1.375-2.095 1.635z" fill="#e33e33" data-fill-palette-color="primary"></path><path d="M139.563 18.591v0c-2.051 0.013-3.661-0.599-4.83-1.837-1.169-1.244-1.761-2.978-1.775-5.203v0c-0.014-2.197 0.443-4.164 1.37-5.901 0.928-1.737 2.209-3.108 3.844-4.113 1.641-1.012 3.501-1.524 5.58-1.537v0c1.404-0.009 2.518 0.22 3.341 0.688 0.823 0.461 1.238 1.101 1.243 1.922v0c0.005 0.737-0.342 1.459-1.039 2.165v0c-0.263 0.266-0.605 0.511-1.028 0.737-0.423 0.218-0.752 0.328-0.989 0.329v0c-0.264 0.002-0.484-0.098-0.659-0.298v0c-0.294-0.325-0.678-0.632-1.153-0.921-0.468-0.289-1.126-0.431-1.974-0.425v0c-1.439 0.009-2.611 0.507-3.515 1.492-0.898 0.986-1.341 2.272-1.331 3.857v0c0.009 1.439 0.427 2.594 1.252 3.465 0.826 0.878 1.913 1.312 3.262 1.304v0c0.702-0.004 1.47-0.134 2.303-0.39 0.833-0.256 1.571-0.618 2.214-1.088v0c0.318-0.301 0.654-0.453 1.009-0.455v0c0.584-0.004 0.878 0.363 0.883 1.1v0c0.006 0.966-0.471 1.894-1.432 2.783v0c-0.726 0.679-1.696 1.234-2.909 1.666-1.214 0.432-2.436 0.652-3.667 0.66z" fill="#e33e33" data-fill-palette-color="primary"></path><path d="M163.2 20.869v0c-1.987-0.383-3.473-1.229-4.46-2.538-0.987-1.309-1.278-3.015-0.872-5.117v0c0.19-0.983 0.51-1.909 0.96-2.778 0.451-0.869 0.982-1.662 1.595-2.38v0c-0.514 0.205-0.887 0.286-1.119 0.241v0c-0.348-0.067-0.55-0.308-0.604-0.722-0.055-0.414-0.046-0.809 0.026-1.184v0c0.128-0.662 0.366-1.162 0.714-1.498 0.348-0.337 0.671-0.579 0.968-0.727v0c0.708-0.402 1.77-0.788 3.187-1.159 1.417-0.371 3.03-0.382 4.839-0.034v0c2.478 0.478 4.266 1.541 5.365 3.19 1.1 1.642 1.41 3.702 0.932 6.181v0c-0.371 1.925-1.111 3.595-2.219 5.01-1.108 1.415-2.461 2.446-4.058 3.094-1.604 0.647-3.356 0.787-5.254 0.421zM165.38 16.722v0c1.44 0.278 2.747 0.059 3.918-0.657 1.165-0.717 1.891-1.823 2.18-3.318v0c0.3-1.557 0.009-2.763-0.874-3.621-0.876-0.856-1.976-1.411-3.3-1.666v0c-0.608-0.117-1.165-0.164-1.672-0.142-0.514 0.021-1.002 0.076-1.466 0.164v0c-0.513 0.496-1 1.075-1.46 1.736-0.452 0.656-0.762 1.418-0.929 2.285v0c-0.278 1.44-0.057 2.609 0.662 3.505 0.725 0.904 1.705 1.476 2.941 1.714z" fill="#e33e33" data-fill-palette-color="primary"></path><path d="M182.893 26.351v0c-0.96-0.424-1.248-0.935-0.862-1.532v0c0.807-1.019 1.573-2.083 2.298-3.192 0.729-1.1 1.336-2.199 1.821-3.3v0c0.629-1.425 1.002-2.503 1.12-3.233 0.111-0.734 0.078-1.296-0.099-1.686-0.187-0.386-0.464-0.74-0.831-1.062v0c-0.151-0.158-0.273-0.337-0.367-0.538-0.087-0.198-0.078-0.418 0.029-0.659v0c0.166-0.375 0.499-0.726 1.001-1.052 0.495-0.329 1.09-0.541 1.785-0.637 0.699-0.086 1.396 0.023 2.089 0.33v0c0.916 0.404 1.41 0.999 1.482 1.782 0.065 0.781-0.126 1.681-0.576 2.699v0c-0.298 0.674-0.696 1.395-1.194 2.163-0.501 0.774-0.966 1.466-1.395 2.074v0l0.103 0.103c1.163-1.189 2.396-2.225 3.699-3.11 1.309-0.881 2.638-1.473 3.986-1.774 1.349-0.301 2.694-0.156 4.037 0.437v0c1.418 0.626 2.313 1.534 2.684 2.724 0.371 1.19 0.272 2.431-0.298 3.722v0c-0.236 0.534-0.518 1.018-0.845 1.451-0.334 0.43-0.671 0.84-1.011 1.229v0c-0.325 0.374-0.632 0.77-0.923 1.189-0.295 0.409-0.543 0.843-0.746 1.301v0c-0.674 1.526-0.405 2.88 0.807 4.061v0c0.305 0.325 0.386 0.649 0.243 0.973v0c-0.107 0.242-0.342 0.552-0.708 0.931-0.361 0.388-0.84 0.682-1.438 0.881-0.604 0.197-1.322 0.112-2.155-0.256v0c-1.069-0.472-1.73-1.22-1.985-2.244-0.255-1.024-0.121-2.128 0.402-3.311v0c0.295-0.668 0.667-1.313 1.117-1.936 0.453-0.613 0.89-1.18 1.309-1.701v0c0.31-0.41 0.607-0.815 0.89-1.215 0.292-0.403 0.515-0.78 0.67-1.129v0c0.545-1.234 0.175-2.134-1.11-2.702v0c-1.1-0.486-2.248-0.502-3.444-0.05-1.195 0.453-2.358 1.167-3.488 2.143-1.136 0.973-2.17 2.006-3.101 3.099v0l-0.426 0.964c-0.438 0.992-1.076 1.687-1.912 2.085-0.831 0.401-1.717 0.394-2.658-0.022z" fill="#e33e33" data-fill-palette-color="primary"></path><path d="M208.061 39.38v0c-0.836-0.635-0.998-1.198-0.485-1.69v0c1.021-0.805 2.012-1.663 2.974-2.574 0.963-0.901 1.808-1.831 2.536-2.789v0c0.941-1.241 1.554-2.203 1.837-2.886 0.278-0.688 0.376-1.242 0.293-1.663-0.092-0.419-0.28-0.828-0.562-1.226v0c-0.11-0.188-0.188-0.391-0.233-0.608-0.039-0.213 0.021-0.425 0.181-0.635v0c0.248-0.327 0.653-0.591 1.217-0.792 0.557-0.205 1.186-0.274 1.884-0.206 0.7 0.078 1.352 0.346 1.956 0.803v0c0.798 0.605 1.141 1.298 1.029 2.077-0.117 0.775-0.512 1.606-1.184 2.492v0c-0.446 0.587-1 1.196-1.662 1.829-0.667 0.637-1.279 1.203-1.837 1.695v0l0.077 0.124c1.407-0.888 2.846-1.611 4.317-2.17 1.477-0.555 2.907-0.823 4.289-0.804 1.382 0.019 2.657 0.472 3.826 1.359v0c1.235 0.937 1.896 2.028 1.981 3.271 0.086 1.244-0.297 2.428-1.15 3.552v0c-0.353 0.465-0.739 0.87-1.158 1.216-0.425 0.341-0.847 0.662-1.268 0.963v0c-0.402 0.288-0.793 0.602-1.173 0.942-0.381 0.33-0.724 0.695-1.026 1.093v0c-1.009 1.329-1.06 2.708-0.155 4.138v0c0.222 0.386 0.225 0.721 0.011 1.003v0c-0.16 0.21-0.461 0.458-0.903 0.742-0.441 0.294-0.975 0.469-1.603 0.525-0.633 0.052-1.312-0.197-2.038-0.748v0c-0.93-0.706-1.401-1.587-1.412-2.643-0.011-1.055 0.375-2.098 1.157-3.128v0c0.441-0.582 0.953-1.123 1.534-1.625 0.583-0.492 1.139-0.943 1.668-1.352v0c0.397-0.327 0.779-0.653 1.146-0.976 0.377-0.325 0.681-0.639 0.913-0.944v0c0.815-1.074 0.664-2.036-0.455-2.885v0c-0.958-0.727-2.071-1.009-3.339-0.845-1.268 0.164-2.564 0.59-3.889 1.277-1.33 0.684-2.575 1.45-3.734 2.299v0l-0.637 0.839c-0.656 0.864-1.437 1.393-2.343 1.586-0.901 0.198-1.761-0.014-2.58-0.636z" fill="#e33e33" data-fill-palette-color="primary"></path><path d="M232.548 61.412v0c-1.449-1.688-2.093-3.421-1.933-5.199 0.15-1.778 1.094-3.412 2.83-4.902v0c1.578-1.354 3.309-2.24 5.195-2.658 1.886-0.418 3.712-0.373 5.477 0.137 1.77 0.515 3.255 1.471 4.455 2.869v0c1.146 1.335 1.735 2.684 1.769 4.048 0.034 1.363-0.495 2.514-1.587 3.451v0c-0.865 0.743-1.896 1.164-3.092 1.265-1.195 0.091-2.389-0.121-3.583-0.636-1.198-0.52-2.265-1.327-3.202-2.418v0c-1.146-1.335-1.78-2.682-1.903-4.043v0c-1.005 0.9-1.527 1.957-1.566 3.171-0.038 1.215 0.4 2.355 1.314 3.421v0c0.552 0.644 1.237 1.206 2.053 1.688 0.816 0.481 1.633 0.793 2.451 0.934v0c0.536 0.08 0.92 0.255 1.151 0.524v0c0.19 0.222 0.275 0.47 0.254 0.744-0.02 0.265-0.141 0.492-0.363 0.683v0c-0.491 0.421-1.499 0.554-3.026 0.397v0c-2.706-0.271-4.937-1.429-6.694-3.476zM240.826 55.188v0c0.684 0.797 1.423 1.321 2.217 1.574 0.795 0.243 1.448 0.145 1.96-0.294v0c0.422-0.362 0.595-0.822 0.519-1.381-0.071-0.553-0.374-1.14-0.908-1.762v0c-0.706-0.823-1.538-1.355-2.496-1.596-0.958-0.241-1.943-0.161-2.955 0.24v0c0.067 0.483 0.255 1.018 0.566 1.604 0.31 0.586 0.676 1.124 1.097 1.615z" fill="#e33e33" data-fill-palette-color="primary"></path><path d="M246.009 80.771v0c-1.006-1.787-1.251-3.492-0.736-5.114 0.521-1.626 1.751-2.984 3.689-4.076v0c1.915-1.078 3.856-1.632 5.826-1.663 1.969-0.031 3.789 0.424 5.46 1.367 1.681 0.945 3.031 2.323 4.051 4.134v0c0.689 1.224 1.028 2.309 1.018 3.257-0.004 0.943-0.363 1.616-1.077 2.018v0c-0.642 0.361-1.442 0.408-2.398 0.141v0c-0.36-0.101-0.741-0.281-1.143-0.541-0.396-0.264-0.652-0.499-0.767-0.705v0c-0.13-0.23-0.149-0.471-0.059-0.721v0c0.142-0.415 0.224-0.9 0.246-1.455 0.026-0.549-0.169-1.193-0.585-1.933v0c-0.706-1.254-1.709-2.038-3.01-2.35-1.298-0.307-2.637-0.071-4.019 0.706v0c-1.254 0.706-2.062 1.631-2.423 2.776-0.367 1.148-0.22 2.31 0.442 3.485v0c0.344 0.612 0.83 1.22 1.458 1.824 0.627 0.604 1.303 1.074 2.025 1.409v0c0.417 0.132 0.713 0.353 0.887 0.662v0c0.286 0.509 0.109 0.944-0.533 1.305v0c-0.842 0.474-1.885 0.506-3.129 0.098v0c-0.946-0.305-1.902-0.884-2.868-1.737-0.966-0.852-1.751-1.815-2.355-2.887z" fill="#e33e33" data-fill-palette-color="primary"></path><path d="M255.408 101.947v0c-0.583-1.689-0.439-3.096 0.431-4.219 0.87-1.124 2.192-1.992 3.967-2.605v0c0.638-0.22 1.271-0.398 1.9-0.534 0.634-0.145 1.271-0.28 1.912-0.406v0c0.641-0.125 1.264-0.249 1.87-0.369 0.614-0.116 1.194-0.239 1.737-0.368v0c-0.364-0.522-0.647-1.075-0.848-1.66v0c-0.211-0.611-0.067-1.003 0.433-1.175v0c0.526-0.181 1.252-0.167 2.177 0.043 0.926 0.21 1.881 0.539 2.866 0.986 0.994 0.451 1.869 0.94 2.624 1.466 0.758 0.533 1.222 1.049 1.395 1.549v0c0.211 0.611-0.209 1.098-1.261 1.461v0c-0.276 0.095-0.567 0.17-0.871 0.223-0.309 0.063-0.624 0.12-0.945 0.172v0c0.293 0.487 0.572 0.987 0.837 1.498 0.271 0.509 0.493 1.014 0.665 1.514v0c0.22 0.638 0.278 1.169 0.175 1.594-0.099 0.417-0.467 0.735-1.104 0.955v0c-0.67 0.231-1.392 0.304-2.165 0.217-0.775-0.093-1.229-0.333-1.363-0.721v0c-0.027-0.079-0.062-0.221-0.103-0.428-0.039-0.2-0.077-0.448-0.114-0.744v0c-0.039-0.391-0.116-0.879-0.229-1.465-0.105-0.582-0.291-1.26-0.559-2.036v0c-0.929 0.1-1.87 0.23-2.823 0.39-0.953 0.16-1.79 0.364-2.513 0.613v0c-1.604 0.553-2.56 1.332-2.868 2.335-0.299 1.008-0.186 2.274 0.34 3.799v0c0.161 0.467 0.2 0.825 0.117 1.074-0.092 0.245-0.332 0.434-0.72 0.569v0c-0.914 0.315-1.851 0.113-2.813-0.607-0.962-0.72-1.677-1.76-2.147-3.121z" fill="#e33e33" data-fill-palette-color="primary"></path><path d="M7.741 182.264v0c-0.23-0.751-0.331-1.487-0.304-2.208 0.022-0.712 0.177-1.334 0.465-1.866 0.282-0.53 0.705-0.881 1.271-1.053v0c0.306-0.093 0.617-0.109 0.934-0.046 0.319 0.07 0.532 0.277 0.638 0.623v0c0.057 0.186 0.066 0.394 0.027 0.624v0c-0.088 0.427-0.131 0.952-0.128 1.577 0 0.618 0.096 1.243 0.289 1.874v0c0.217 0.711 0.509 1.309 0.876 1.794 0.375 0.489 0.745 0.677 1.11 0.565v0c0.286-0.087 0.425-0.359 0.417-0.814-0.006-0.449-0.086-1.184-0.239-2.206v0c-0.086-0.708-0.144-1.399-0.175-2.073-0.027-0.682 0.094-1.286 0.362-1.812 0.275-0.528 0.798-0.909 1.569-1.145v0c0.751-0.23 1.539-0.245 2.363-0.046 0.833 0.203 1.609 0.649 2.329 1.338 0.72 0.689 1.263 1.635 1.631 2.838v0c0.191 0.625 0.307 1.255 0.348 1.889 0.033 0.63-0.032 1.18-0.193 1.652-0.168 0.473-0.465 0.775-0.89 0.904v0c-0.366 0.112-0.74 0.088-1.123-0.071-0.383-0.159-0.722-0.375-1.017-0.649-0.296-0.28-0.478-0.53-0.545-0.749v0c-0.051-0.166 0.003-0.394 0.162-0.682v0c0.174-0.431 0.253-0.873 0.238-1.327-0.013-0.447-0.083-0.876-0.208-1.288v0c-0.185-0.605-0.425-1.07-0.721-1.394-0.3-0.315-0.593-0.429-0.879-0.342v0c-0.259 0.079-0.424 0.301-0.495 0.664-0.062 0.368-0.058 0.796 0.011 1.283 0.069 0.488 0.139 0.954 0.209 1.398v0c0.2 1.226 0.207 2.245 0.019 3.058-0.181 0.811-0.77 1.37-1.767 1.675v0c-0.771 0.236-1.606 0.251-2.505 0.046-0.89-0.2-1.704-0.639-2.441-1.315-0.744-0.674-1.29-1.579-1.638-2.716z" fill="#e33e33" data-fill-palette-color="primary"></path><path d="M18.371 207.649v0c-0.607-1.142-0.662-2.164-0.165-3.066 0.497-0.902 1.344-1.671 2.541-2.307v0c0.43-0.228 0.865-0.432 1.305-0.612 0.437-0.17 0.876-0.336 1.317-0.499v0c0.441-0.163 0.874-0.319 1.299-0.466 0.422-0.154 0.821-0.307 1.197-0.46v0c-0.319-0.334-0.584-0.698-0.792-1.09v0c-0.222-0.417-0.164-0.716 0.173-0.896v0c0.356-0.189 0.877-0.261 1.562-0.216 0.685 0.045 1.41 0.172 2.175 0.38 0.758 0.211 1.439 0.463 2.043 0.755 0.598 0.296 0.987 0.613 1.167 0.951v0c0.219 0.411-0.028 0.806-0.74 1.185v0c-0.19 0.101-0.392 0.189-0.605 0.262-0.209 0.08-0.425 0.155-0.647 0.226v0c0.263 0.317 0.518 0.642 0.766 0.975 0.251 0.339 0.466 0.677 0.646 1.015v0c0.228 0.43 0.331 0.8 0.308 1.112-0.029 0.315-0.259 0.587-0.689 0.815v0c-0.448 0.238-0.953 0.369-1.516 0.392-0.569 0.027-0.923-0.092-1.063-0.356v0c-0.029-0.055-0.069-0.152-0.119-0.291-0.053-0.145-0.111-0.319-0.172-0.522v0c-0.069-0.278-0.176-0.619-0.319-1.023-0.144-0.404-0.356-0.87-0.637-1.398v0c-0.652 0.181-1.309 0.381-1.973 0.6-0.66 0.225-1.236 0.468-1.726 0.729v0c-1.087 0.578-1.683 1.241-1.789 1.99-0.102 0.755 0.121 1.649 0.669 2.68v0c0.17 0.319 0.237 0.571 0.201 0.755-0.036 0.184-0.183 0.345-0.44 0.482v0c-0.62 0.33-1.315 0.289-2.084-0.12-0.772-0.401-1.403-1.061-1.893-1.982z" fill="#e33e33" data-fill-palette-color="primary"></path><path d="M30.599 226.282v0c-0.212-0.266-0.335-0.515-0.368-0.746-0.033-0.231 0.081-0.406 0.341-0.526v0c0.855-0.388 1.702-0.814 2.542-1.278 0.839-0.464 1.599-0.967 2.278-1.509v0c0.881-0.702 1.482-1.27 1.803-1.704 0.321-0.434 0.489-0.803 0.503-1.108 0.01-0.311-0.05-0.631-0.18-0.963v0c-0.042-0.153-0.059-0.308-0.051-0.466 0.013-0.162 0.093-0.301 0.24-0.418v0c0.234-0.186 0.566-0.3 0.996-0.34 0.426-0.046 0.876 0.017 1.351 0.19 0.471 0.167 0.878 0.465 1.22 0.895v0c0.451 0.565 0.569 1.116 0.355 1.65-0.208 0.531-0.631 1.049-1.267 1.557v0c0.907-0.234 1.729-0.284 2.466-0.152 0.742 0.128 1.378 0.524 1.907 1.188v0c0.36 0.451 0.561 0.904 0.603 1.359 0.037 0.459-0.17 0.869-0.621 1.229v0c-0.446 0.355-0.982 0.542-1.607 0.56-0.621 0.024-1.051-0.114-1.289-0.413v0c-0.039-0.049-0.076-0.113-0.112-0.191-0.035-0.088-0.039-0.182-0.012-0.283v0c0.093-0.43 0.014-0.802-0.238-1.118v0c-0.381-0.478-1.032-0.649-1.953-0.51-0.931 0.137-1.964 0.632-3.099 1.483v0c-0.406 0.35-0.819 0.702-1.24 1.055-0.425 0.348-0.738 0.602-0.94 0.762v0c-0.614 0.49-1.254 0.724-1.92 0.703-0.675-0.022-1.245-0.324-1.708-0.906z" fill="#e33e33" data-fill-palette-color="primary"></path><path d="M49.568 246.344v0c-1.222-1.063-1.869-2.238-1.938-3.524-0.075-1.291 0.43-2.561 1.516-3.809v0c0.99-1.138 2.138-1.955 3.444-2.45 1.301-0.5 2.615-0.66 3.943-0.482 1.318 0.179 2.481 0.707 3.489 1.582v0c0.965 0.839 1.531 1.746 1.697 2.72 0.161 0.969-0.1 1.848-0.784 2.635v0c-0.543 0.624-1.236 1.035-2.08 1.232-0.839 0.192-1.716 0.167-2.63-0.076-0.914-0.242-1.764-0.705-2.551-1.389v0c-0.96-0.835-1.555-1.735-1.785-2.699v0c-0.628 0.753-0.891 1.565-0.791 2.435 0.096 0.875 0.529 1.649 1.3 2.319v0c0.462 0.401 1.009 0.73 1.644 0.987 0.638 0.251 1.262 0.388 1.869 0.409v0c0.385 0.003 0.674 0.089 0.868 0.258v0c0.163 0.141 0.248 0.308 0.256 0.499 0.014 0.196-0.048 0.373-0.184 0.531v0c-0.306 0.351-1.014 0.551-2.125 0.599v0c-1.964 0.098-3.684-0.495-5.158-1.777zM54.836 241.002v0c0.577 0.502 1.165 0.801 1.763 0.897 0.593 0.092 1.049-0.046 1.368-0.413v0c0.265-0.304 0.341-0.652 0.23-1.044-0.111-0.391-0.39-0.781-0.835-1.169v0c-0.593-0.516-1.244-0.81-1.954-0.884-0.714-0.068-1.413 0.094-2.095 0.487v0c0.102 0.338 0.293 0.702 0.571 1.091 0.283 0.384 0.6 0.729 0.952 1.035z" fill="#e33e33" data-fill-palette-color="primary"></path><path d="M71.967 262.044v0c-1.117-0.61-1.825-1.452-2.125-2.527-0.297-1.066-0.089-2.251 0.624-3.557v0c0.51-0.934 1.196-1.763 2.06-2.487 0.869-0.721 1.852-1.266 2.948-1.634 1.099-0.374 2.256-0.519 3.469-0.434 1.207 0.081 2.418 0.453 3.633 1.116v0c1.117 0.61 1.968 1.321 2.554 2.133 0.583 0.818 0.697 1.553 0.34 2.205v0c-0.09 0.165-0.228 0.374-0.414 0.629-0.183 0.248-0.35 0.438-0.502 0.57v0c-0.138 0.123-0.293 0.217-0.463 0.282-0.164 0.069-0.332 0.056-0.502-0.037v0c-0.073-0.04-0.197-0.147-0.371-0.321v0c-0.29 0.357-0.555 0.711-0.795 1.063-0.24 0.352-0.462 0.714-0.665 1.086v0c-0.387 0.708-0.623 1.395-0.709 2.061-0.086 0.666 0.153 1.236 0.717 1.711v0c0.141 0.133 0.244 0.264 0.308 0.394 0.064 0.13 0.029 0.317-0.105 0.56v0c-0.11 0.201-0.303 0.432-0.58 0.693-0.277 0.261-0.627 0.438-1.051 0.532-0.427 0.1-0.912 0.001-1.455-0.296v0c-0.726-0.397-1.139-0.967-1.24-1.711-0.101-0.744 0.119-1.61 0.659-2.599v0c-1.003 0.633-2.047 1.029-3.132 1.189-1.092 0.156-2.159-0.05-3.203-0.621zM74.454 259.624v0c0.744 0.407 1.527 0.533 2.348 0.379 0.824-0.16 1.588-0.507 2.292-1.042v0c0.451-0.332 0.876-0.734 1.275-1.204 0.4-0.471 0.761-0.959 1.085-1.463v0c-0.237-0.32-0.535-0.637-0.894-0.952-0.355-0.321-0.756-0.603-1.202-0.847v0c-1.141-0.623-2.261-0.799-3.359-0.528-1.105 0.268-1.932 0.905-2.483 1.912v0c-0.407 0.744-0.53 1.457-0.371 2.138 0.159 0.681 0.595 1.216 1.309 1.607z" fill="#e33e33" data-fill-palette-color="primary"></path><path d="M98.307 273.377v0c-0.742-0.186-1.01-0.518-0.804-0.996v0c0.45-0.826 0.868-1.679 1.252-2.558 0.385-0.878 0.682-1.739 0.893-2.582v0c0.273-1.093 0.406-1.909 0.398-2.448-0.008-0.54-0.103-0.936-0.284-1.189-0.174-0.251-0.413-0.469-0.718-0.653v0c-0.126-0.096-0.234-0.209-0.324-0.339-0.088-0.137-0.109-0.296-0.063-0.478v0c0.073-0.29 0.267-0.582 0.585-0.875 0.31-0.295 0.71-0.518 1.199-0.667 0.482-0.152 0.993-0.16 1.533-0.026v0c0.701 0.175 1.123 0.539 1.264 1.091 0.15 0.546 0.126 1.214-0.071 2.003v0c-0.128 0.513-0.323 1.077-0.585 1.692-0.26 0.609-0.509 1.159-0.746 1.652v0l0.053 0.045c0.604-1.01 1.265-1.92 1.984-2.729 0.717-0.803 1.492-1.408 2.324-1.816 0.831-0.401 1.702-0.488 2.613-0.26v0c0.924 0.231 1.577 0.728 1.96 1.49 0.376 0.761 0.412 1.748 0.109 2.962v0l-0.172 0.688c0.916-1.111 1.904-1.982 2.964-2.612 1.067-0.629 2.208-0.791 3.423-0.488v0c0.991 0.248 1.681 0.772 2.068 1.571 0.396 0.794 0.47 1.687 0.223 2.679v0c-0.098 0.391-0.232 0.755-0.403 1.092-0.179 0.342-0.363 0.676-0.551 1.002v0c-0.164 0.31-0.33 0.631-0.499 0.961-0.167 0.324-0.294 0.661-0.382 1.012v0c-0.31 1.241 0.011 2.178 0.964 2.81v0c0.133 0.098 0.232 0.191 0.296 0.278 0.062 0.094 0.07 0.236 0.022 0.425v0c-0.046 0.182-0.17 0.434-0.372 0.756-0.196 0.324-0.496 0.593-0.9 0.807-0.406 0.221-0.92 0.254-1.541 0.099v0c-0.803-0.201-1.346-0.652-1.628-1.354-0.285-0.695-0.314-1.494-0.089-2.398v0c0.113-0.452 0.272-0.914 0.476-1.386 0.206-0.479 0.429-0.928 0.671-1.348v0c0.204-0.386 0.386-0.756 0.546-1.11 0.167-0.352 0.284-0.663 0.352-0.933v0c0.123-0.492 0.095-0.883-0.084-1.172-0.18-0.282-0.466-0.471-0.857-0.569v0c-0.661-0.165-1.306-0.108-1.935 0.172-0.629 0.28-1.225 0.7-1.788 1.262-0.568 0.553-1.093 1.189-1.574 1.907v0c-0.025 0.187-0.072 0.43-0.139 0.728-0.062 0.307-0.121 0.572-0.177 0.794v0c-0.098 0.391-0.228 0.796-0.39 1.215-0.164 0.425-0.352 0.761-0.564 1.009v0c-0.26 0.351-0.583 0.61-0.969 0.779-0.379 0.17-0.839 0.188-1.378 0.053v0c-0.223-0.056-0.427-0.157-0.612-0.304-0.179-0.145-0.243-0.319-0.193-0.521v0c0.022-0.088 0.175-0.44 0.458-1.057 0.283-0.617 0.608-1.385 0.974-2.304 0.358-0.914 0.649-1.823 0.876-2.727v0c0.248-0.991 0.319-1.705 0.213-2.14-0.115-0.43-0.378-0.696-0.789-0.799v0c-0.513-0.128-1.056-0.035-1.629 0.28-0.573 0.315-1.134 0.766-1.682 1.353-0.555 0.585-1.063 1.214-1.526 1.887-0.462 0.673-0.857 1.305-1.184 1.897v0l-0.086 0.344c-0.191 0.762-0.557 1.337-1.098 1.725-0.55 0.393-1.185 0.499-1.907 0.318z" fill="#e33e33" data-fill-palette-color="primary"></path><path d="M139.602 280v0c-1.488-0.007-2.65-0.464-3.488-1.372-0.83-0.908-1.242-2.168-1.234-3.781v0c0.007-1.592 0.355-3.012 1.042-4.26 0.68-1.248 1.616-2.231 2.809-2.949 1.192-0.718 2.543-1.073 4.051-1.066v0c1.022 0.005 1.828 0.179 2.417 0.522 0.596 0.343 0.893 0.811 0.89 1.401v0c-0.002 0.528-0.259 1.049-0.768 1.561v0c-0.196 0.187-0.447 0.359-0.753 0.518-0.307 0.159-0.547 0.237-0.721 0.237v0c-0.188-0.001-0.347-0.075-0.479-0.221v0c-0.207-0.237-0.481-0.461-0.821-0.672-0.34-0.217-0.819-0.327-1.437-0.33v0c-1.036-0.005-1.886 0.346-2.55 1.052-0.664 0.713-0.998 1.643-1.003 2.791v0c-0.005 1.036 0.29 1.875 0.885 2.517 0.588 0.635 1.372 0.955 2.353 0.96v0c0.508 0.002 1.064-0.085 1.669-0.263 0.606-0.171 1.146-0.426 1.62-0.765v0c0.23-0.214 0.474-0.321 0.732-0.32v0c0.424 0.002 0.635 0.267 0.632 0.796v0c-0.003 0.702-0.357 1.371-1.062 2.008v0c-0.531 0.484-1.238 0.877-2.123 1.179-0.884 0.309-1.772 0.461-2.661 0.457z" fill="#e33e33" data-fill-palette-color="primary"></path><path d="M167.404 277.237v0c-1.438 0.289-2.669 0.129-3.692-0.481-1.022-0.603-1.685-1.665-1.991-3.185v0c-0.142-0.709-0.182-1.417-0.118-2.125 0.063-0.708 0.204-1.385 0.421-2.031v0c-0.293 0.272-0.521 0.424-0.684 0.457v0c-0.252 0.051-0.451-0.055-0.596-0.317-0.152-0.26-0.255-0.527-0.309-0.799v0c-0.096-0.477-0.073-0.875 0.068-1.195 0.142-0.319 0.289-0.572 0.443-0.759v0c0.368-0.464 0.973-1.015 1.817-1.652 0.845-0.631 1.925-1.078 3.24-1.343v0c1.786-0.359 3.276-0.141 4.472 0.655 1.19 0.803 1.965 2.101 2.325 3.894v0c0.279 1.391 0.24 2.714-0.117 3.97-0.352 1.248-0.979 2.31-1.881 3.186-0.895 0.875-2.028 1.45-3.398 1.725zM167.724 273.854v0c1.043-0.21 1.856-0.713 2.441-1.512 0.591-0.8 0.778-1.741 0.56-2.825v0c-0.226-1.125-0.752-1.852-1.577-2.182-0.825-0.331-1.718-0.399-2.679-0.207v0c-0.436 0.088-0.823 0.208-1.162 0.361-0.338 0.153-0.648 0.322-0.93 0.506v0c-0.21 0.475-0.377 0.998-0.504 1.57-0.121 0.563-0.118 1.158 0.008 1.785v0c0.208 1.036 0.676 1.758 1.403 2.165 0.734 0.406 1.547 0.519 2.44 0.339z" fill="#e33e33" data-fill-palette-color="primary"></path><path d="M192.156 269.693v0c-0.698 0.313-1.114 0.218-1.248-0.286v0c-0.157-0.928-0.357-1.856-0.598-2.783-0.241-0.928-0.54-1.789-0.896-2.582v0c-0.461-1.028-0.862-1.751-1.203-2.169-0.34-0.419-0.66-0.672-0.958-0.759-0.292-0.09-0.615-0.113-0.968-0.069v0c-0.159 0.003-0.314-0.019-0.464-0.066-0.153-0.053-0.269-0.165-0.345-0.336v0c-0.122-0.273-0.15-0.622-0.083-1.049 0.061-0.424 0.238-0.846 0.529-1.266 0.285-0.418 0.681-0.74 1.189-0.968v0c0.66-0.296 1.216-0.271 1.668 0.074 0.456 0.336 0.85 0.876 1.184 1.618v0c0.216 0.482 0.412 1.046 0.587 1.691 0.172 0.639 0.318 1.225 0.436 1.759v0l0.098-0.01c-0.068-1.204-0.024-2.371 0.132-3.5 0.156-1.129 0.48-2.132 0.971-3.008 0.494-0.869 1.223-1.521 2.186-1.953v0c1.028-0.461 1.954-0.504 2.778-0.127 0.815 0.373 1.432 1.026 1.851 1.958v0c0.174 0.387 0.298 0.773 0.372 1.16 0.068 0.389 0.128 0.769 0.181 1.141v0c0.038 0.356 0.099 0.714 0.184 1.072 0.078 0.361 0.19 0.703 0.335 1.027v0c0.498 1.11 1.358 1.624 2.578 1.541v0c0.324-0.008 0.539 0.105 0.644 0.34v0c0.077 0.171 0.129 0.449 0.157 0.832 0.034 0.381-0.042 0.781-0.228 1.2-0.183 0.425-0.572 0.771-1.168 1.039v0c-0.78 0.35-1.508 0.342-2.184-0.026-0.673-0.361-1.2-0.967-1.581-1.816v0c-0.216-0.482-0.382-0.995-0.496-1.538-0.114-0.543-0.21-1.053-0.286-1.529v0c-0.072-0.364-0.146-0.723-0.221-1.078-0.073-0.348-0.166-0.65-0.28-0.904v0c-0.399-0.888-1.064-1.123-1.996-0.704v0c-0.793 0.356-1.358 0.964-1.696 1.825-0.338 0.86-0.518 1.833-0.542 2.918-0.026 1.079 0.029 2.136 0.166 3.172v0l0.312 0.694c0.322 0.717 0.39 1.395 0.204 2.035-0.189 0.649-0.623 1.125-1.301 1.43z" fill="#e33e33" data-fill-palette-color="primary"></path><path d="M219.929 254.457v0c-0.608 0.464-1.035 0.466-1.281 0.006v0c-0.364-0.868-0.769-1.726-1.215-2.575-0.446-0.849-0.932-1.619-1.459-2.31v0c-0.683-0.896-1.238-1.509-1.664-1.839-0.427-0.33-0.795-0.504-1.106-0.521-0.305-0.021-0.624 0.03-0.958 0.153v0c-0.154 0.039-0.31 0.052-0.467 0.041-0.161-0.017-0.299-0.1-0.413-0.249v0c-0.181-0.238-0.287-0.572-0.318-1.003-0.037-0.427 0.039-0.878 0.227-1.353 0.183-0.471 0.495-0.876 0.937-1.213v0c0.575-0.438 1.122-0.541 1.642-0.307 0.52 0.224 1.027 0.659 1.52 1.307v0c0.32 0.42 0.639 0.925 0.957 1.513 0.313 0.583 0.588 1.121 0.824 1.614v0l0.093-0.032c-0.34-1.157-0.562-2.303-0.667-3.439-0.105-1.135-0.018-2.185 0.261-3.149 0.283-0.959 0.845-1.759 1.686-2.399v0c0.896-0.683 1.788-0.934 2.676-0.756 0.879 0.178 1.628 0.674 2.248 1.487v0c0.257 0.337 0.466 0.685 0.625 1.044 0.154 0.363 0.3 0.72 0.436 1.071v0c0.118 0.338 0.259 0.672 0.423 1.002 0.158 0.334 0.345 0.642 0.56 0.924v0c0.738 0.968 1.691 1.272 2.861 0.914v0c0.314-0.082 0.548-0.02 0.704 0.184v0c0.114 0.149 0.228 0.408 0.342 0.776 0.12 0.363 0.137 0.77 0.051 1.219-0.081 0.455-0.382 0.881-0.902 1.278v0c-0.68 0.518-1.391 0.676-2.132 0.471-0.737-0.199-1.388-0.668-1.953-1.409v0c-0.32-0.42-0.598-0.882-0.832-1.385-0.235-0.503-0.444-0.978-0.627-1.424v0c-0.153-0.338-0.306-0.671-0.46-1-0.15-0.323-0.309-0.595-0.478-0.816v0c-0.59-0.774-1.292-0.851-2.104-0.231v0c-0.691 0.527-1.103 1.248-1.237 2.162-0.133 0.915-0.088 1.903 0.136 2.965 0.22 1.056 0.514 2.073 0.883 3.051v0l0.461 0.605c0.476 0.625 0.697 1.27 0.662 1.935-0.036 0.675-0.35 1.238-0.942 1.688z" fill="#e33e33" data-fill-palette-color="primary"></path><path d="M245.611 230.999v0c-1.05 1.234-2.218 1.892-3.504 1.976-1.29 0.089-2.565-0.403-3.825-1.476v0c-1.149-0.978-1.978-2.117-2.486-3.418-0.513-1.295-0.688-2.608-0.524-3.938 0.165-1.32 0.68-2.489 1.546-3.505v0c0.829-0.974 1.73-1.55 2.702-1.726 0.968-0.171 1.849 0.081 2.643 0.757v0c0.63 0.536 1.048 1.225 1.253 2.067 0.2 0.837 0.185 1.714-0.047 2.63-0.232 0.916-0.686 1.771-1.363 2.565v0c-0.825 0.969-1.718 1.573-2.68 1.814v0c0.76 0.62 1.575 0.875 2.444 0.765 0.874-0.105 1.643-0.546 2.305-1.324v0c0.397-0.466 0.72-1.017 0.969-1.654 0.244-0.641 0.374-1.266 0.39-1.874v0c-0.001-0.385 0.081-0.675 0.248-0.87v0c0.14-0.164 0.305-0.251 0.497-0.262 0.196-0.016 0.373 0.044 0.532 0.179v0c0.355 0.302 0.562 1.008 0.622 2.118v0c0.118 1.963-0.456 3.689-1.722 5.176zM240.213 225.788v0c0.496-0.582 0.789-1.173 0.879-1.772 0.085-0.594-0.057-1.048-0.428-1.364v0c-0.307-0.261-0.656-0.334-1.046-0.219-0.39 0.115-0.777 0.398-1.16 0.848v0c-0.509 0.598-0.797 1.253-0.863 1.963-0.061 0.715 0.108 1.412 0.508 2.09v0c0.337-0.106 0.698-0.3 1.085-0.583 0.381-0.287 0.723-0.608 1.025-0.963z" fill="#e33e33" data-fill-palette-color="primary"></path><path d="M261.347 208.075v0c-0.717 1.304-1.673 2.107-2.871 2.408-1.194 0.296-2.498 0.055-3.911-0.721v0c-1.395-0.767-2.477-1.75-3.246-2.95-0.772-1.194-1.189-2.486-1.25-3.876-0.061-1.39 0.272-2.746 0.998-4.068v0c0.492-0.896 1.03-1.52 1.613-1.874 0.587-0.36 1.139-0.398 1.657-0.113v0c0.463 0.254 0.798 0.728 1.004 1.42v0c0.071 0.261 0.103 0.564 0.096 0.909-0.007 0.345-0.053 0.594-0.137 0.746v0c-0.09 0.165-0.231 0.27-0.423 0.315v0c-0.308 0.069-0.635 0.203-0.981 0.401-0.353 0.195-0.678 0.563-0.977 1.106v0c-0.499 0.908-0.597 1.822-0.293 2.742 0.31 0.924 0.967 1.662 1.972 2.214v0c0.908 0.499 1.786 0.64 2.635 0.425 0.839-0.213 1.495-0.749 1.967-1.609v0c0.244-0.445 0.433-0.976 0.566-1.593 0.139-0.614 0.173-1.21 0.102-1.788v0c-0.078-0.305-0.056-0.57 0.068-0.796v0c0.204-0.372 0.538-0.43 1.001-0.176v0c0.615 0.338 1.034 0.969 1.257 1.893v0c0.172 0.697 0.18 1.507 0.022 2.428-0.151 0.924-0.441 1.777-0.869 2.557z" fill="#e33e33" data-fill-palette-color="primary"></path><path d="M272.069 182.947v0c-0.396 1.231-1.091 1.982-2.084 2.254-0.993 0.272-2.135 0.2-3.426-0.215v0c-0.463-0.149-0.912-0.319-1.347-0.511-0.426-0.196-0.852-0.395-1.276-0.597v0c-0.424-0.202-0.837-0.405-1.24-0.607-0.404-0.196-0.792-0.375-1.163-0.539v0c-0.017 0.462-0.094 0.905-0.23 1.329v0c-0.145 0.45-0.399 0.616-0.764 0.499v0c-0.384-0.124-0.798-0.447-1.243-0.97-0.445-0.523-0.859-1.131-1.242-1.824-0.377-0.691-0.67-1.355-0.882-1.993-0.204-0.636-0.248-1.135-0.131-1.499v0c0.143-0.443 0.598-0.542 1.366-0.295v0c0.205 0.066 0.408 0.15 0.609 0.251 0.203 0.095 0.408 0.197 0.614 0.307v0c0.044-0.409 0.099-0.819 0.165-1.228 0.068-0.416 0.161-0.806 0.278-1.171v0c0.149-0.463 0.344-0.795 0.584-0.995 0.246-0.198 0.601-0.223 1.064-0.074v0c0.483 0.156 0.929 0.427 1.338 0.814 0.415 0.389 0.577 0.726 0.485 1.011v0c-0.019 0.06-0.061 0.156-0.126 0.288-0.067 0.139-0.152 0.302-0.255 0.488v0c-0.151 0.243-0.322 0.557-0.512 0.941-0.19 0.385-0.376 0.861-0.559 1.431v0c0.584 0.341 1.185 0.674 1.805 0.997 0.621 0.317 1.196 0.56 1.726 0.731v0c1.171 0.377 2.063 0.343 2.673-0.103 0.613-0.453 1.099-1.235 1.457-2.347v0c0.111-0.344 0.245-0.568 0.402-0.671 0.157-0.103 0.375-0.109 0.653-0.02v0c0.668 0.215 1.123 0.741 1.365 1.579 0.25 0.833 0.216 1.746-0.104 2.739z" fill="#e33e33" data-fill-palette-color="primary"></path><path d="M0.515 140.86c0-4.462 3.617-8.079 8.079-8.079 4.462 0 8.079 3.617 8.08 8.079 0 4.462-3.617 8.079-8.08 8.079-4.462 0-8.079-3.617-8.079-8.079z" fill="#e33e33" data-fill-palette-color="primary"></path><path d="M263.326 140.86c0-4.462 3.617-8.079 8.08-8.079 4.462 0 8.079 3.617 8.079 8.079 0 4.462-3.617 8.079-8.079 8.079-4.462 0-8.079-3.617-8.08-8.079z" fill="#e33e33" data-fill-palette-color="primary"></path></g><g id="text-1"></g></svg></g></svg></g></svg></g></svg></g><defs></defs></svg><rect width="280" height="280" fill="none" stroke="none" visibility="hidden"></rect></g></svg></g></svg>