<svg xmlns="http://www.w3.org/2000/svg" version="1.1" xmlns:xlink="http://www.w3.org/1999/xlink" xmlns:svgjs="http://svgjs.dev/svgjs" width="2000" height="454" viewBox="0 0 2000 454"><g transform="matrix(1,0,0,1,-1.2121212121213603,-1.3577577580629168)"><svg viewBox="0 0 396 90" data-background-color="#ffffff" preserveAspectRatio="xMidYMid meet" height="454" width="2000" xmlns="http://www.w3.org/2000/svg" xmlns:xlink="http://www.w3.org/1999/xlink"><g id="tight-bounds" transform="matrix(1,0,0,1,0.24000000000003752,0.26918700960098363)"><svg viewBox="0 0 395.5199999999999 89.46134161113588" height="89.46134161113588" width="395.5199999999999"><g><svg viewBox="0 0 536.7230078219474 121.39957613601233" height="89.46134161113588" width="395.5199999999999"><g transform="matrix(1,0,0,1,141.2030078219474,43.92262165893868)"><svg viewBox="0 0 395.52 33.554332818134974" height="33.554332818134974" width="395.52"><g id="textblocktransform"><svg viewBox="0 0 395.52 33.554332818134974" height="33.554332818134974" width="395.52" id="textblock"><g><svg viewBox="0 0 395.52 33.554332818134974" height="33.554332818134974" width="395.52"><g transform="matrix(1,0,0,1,0,0)"><svg width="395.52" viewBox="1.45 -24.05 291.12 24.7" height="33.554332818134974" data-palette-color="#e33e33"><path d="M8.5 0.65L8.5 0.65Q6.65 0.65 5.05 0.1 3.45-0.45 2.45-1.45 1.45-2.45 1.45-3.85L1.45-3.85Q1.45-4.6 1.83-5.28 2.2-5.95 3.05-5.95L3.05-5.95Q3.5-5.95 4-5.7L4-5.7Q4.9-5.2 6.3-4.78 7.7-4.35 9.25-4.35L9.25-4.35Q11-4.35 12.35-4.85 13.7-5.35 13.7-6.25L13.7-6.25Q13.7-6.95 12.68-7.25 11.65-7.55 9.25-7.9L9.25-7.9Q7.6-8.2 6.05-8.6 4.5-9 3.5-9.98 2.5-10.95 2.5-12.85L2.5-12.85Q2.5-14.7 3.53-16.43 4.55-18.15 6.6-19.3 8.65-20.45 11.6-20.45L11.6-20.45Q13.15-20.45 14.6-20.1 16.05-19.75 17-19.05 17.95-18.35 17.95-17.3L17.95-17.3Q17.95-16.4 17.32-15.65 16.7-14.9 15.88-14.43 15.05-13.95 14.5-13.95L14.5-13.95Q14.1-13.95 13.55-14.5L13.55-14.5Q12.7-15.2 11.68-15.48 10.65-15.75 9.65-15.75L9.65-15.75Q8.15-15.75 7.23-15.3 6.3-14.85 6.3-14.15L6.3-14.15Q6.3-13.5 7.08-13.1 7.85-12.7 9-12.53 10.15-12.35 11.2-12.2L11.2-12.2Q14.1-11.8 15.8-10.83 17.5-9.85 17.5-7.4L17.5-7.4Q17.5-5.5 16.43-3.63 15.35-1.75 13.33-0.55 11.3 0.65 8.5 0.65ZM29.1 0.65L29.1 0.65Q26.05 0.65 24.72-1.38 23.4-3.4 23.4-6.6L23.4-6.6Q23.4-7.75 23.52-8.85 23.65-9.95 23.8-11.05L23.8-11.05Q23.95-12.15 24.1-13.2 24.25-14.25 24.35-15.2L24.35-15.2Q23.3-14.9 22.25-14.9L22.25-14.9Q21.15-14.9 21.15-15.8L21.15-15.8Q21.15-16.75 22-18.13 22.85-19.5 24.12-20.85 25.4-22.2 26.67-23.13 27.95-24.05 28.85-24.05L28.85-24.05Q29.95-24.05 29.95-22.15L29.95-22.15Q29.95-21.65 29.87-21.13 29.8-20.6 29.7-20.05L29.7-20.05Q30.65-20.25 31.62-20.4 32.6-20.55 33.5-20.55L33.5-20.55Q34.65-20.55 35.27-20.15 35.9-19.75 35.9-18.6L35.9-18.6Q35.9-17.4 35.32-16.2 34.75-15 34.05-15L34.05-15Q33.9-15 33.55-15.05 33.2-15.1 32.7-15.2L32.7-15.2Q32.05-15.35 31.05-15.5 30.05-15.65 28.65-15.65L28.65-15.65Q28.3-14.1 28.02-12.48 27.75-10.85 27.75-9.55L27.75-9.55Q27.75-6.65 29.2-5.6 30.65-4.55 33.4-4.55L33.4-4.55Q34.25-4.55 34.6-4.28 34.95-4 34.95-3.3L34.95-3.3Q34.95-1.65 33.25-0.5 31.55 0.65 29.1 0.65ZM41.55 0.55L41.55 0.55Q40.75 0.55 40.27 0.28 39.8 0 39.95-0.65L39.95-0.65Q40.5-2.8 40.87-5.03 41.25-7.25 41.25-9.3L41.25-9.3Q41.25-11.95 40.92-13.18 40.6-14.4 40.05-14.88 39.5-15.35 38.7-15.6L38.7-15.6Q38.35-15.75 38.07-16 37.8-16.25 37.8-16.7L37.8-16.7Q37.8-17.4 38.35-18.25 38.9-19.1 39.9-19.73 40.9-20.35 42.2-20.35L42.2-20.35Q43.9-20.35 44.57-19.18 45.25-18 45.25-16.1L45.25-16.1Q46.15-18.1 47.47-19.28 48.8-20.45 50.8-20.45L50.8-20.45Q52.15-20.45 53.05-19.85 53.95-19.25 53.95-17.9L53.95-17.9Q53.95-16.55 53.07-15.38 52.2-14.2 51.3-14.2L51.3-14.2Q51.15-14.2 50.95-14.25 50.75-14.3 50.6-14.5L50.6-14.5Q49.95-15.3 49-15.3L49-15.3Q47.55-15.3 46.45-13.4 45.35-11.5 45.25-8.15L45.25-8.15Q45.3-6.9 45.32-5.6 45.35-4.3 45.35-3.7L45.35-3.7Q45.35-1.85 44.32-0.65 43.3 0.55 41.55 0.55ZM62.39 0.65L62.39 0.65Q58.59 0.65 56.47-1.53 54.34-3.7 54.34-7.6L54.34-7.6Q54.34-11.15 55.89-14.05 57.44-16.95 60.07-18.68 62.69-20.4 65.84-20.4L65.84-20.4Q68.84-20.4 70.64-18.93 72.44-17.45 72.44-15L72.44-15Q72.44-13.05 71.24-11.4 70.04-9.75 68.04-8.78 66.04-7.8 63.59-7.8L63.59-7.8Q60.59-7.8 58.69-9.15L58.69-9.15Q58.74-6.85 60.27-5.45 61.79-4.05 64.19-4.05L64.19-4.05Q65.64-4.05 67.17-4.58 68.69-5.1 69.79-6L69.79-6Q70.49-6.6 71.09-6.6L71.09-6.6Q71.59-6.6 71.92-6.28 72.24-5.95 72.24-5.45L72.24-5.45Q72.24-4.35 70.34-2.55L70.34-2.55Q66.99 0.65 62.39 0.65ZM63.14-11.1L63.14-11.1Q64.94-11.1 66.14-11.85 67.34-12.6 67.34-13.75L67.34-13.75Q67.34-14.7 66.54-15.23 65.74-15.75 64.34-15.75L64.34-15.75Q62.49-15.75 61.12-14.78 59.74-13.8 59.14-12.05L59.14-12.05Q59.84-11.6 60.94-11.35 62.04-11.1 63.14-11.1ZM82.49 0.65L82.49 0.65Q79.49 0.65 77.67-1.23 75.84-3.1 75.84-6.6L75.84-6.6Q75.84-9.1 76.81-11.58 77.79-14.05 79.64-16.05 81.49-18.05 84.09-19.25 86.69-20.45 89.94-20.45L89.94-20.45Q92.94-20.45 95.06-19.43 97.19-18.4 97.19-16.65L97.19-16.65Q97.19-16.2 97.09-15.48 96.99-14.75 96.84-14.3L96.84-14.3Q96.69-13.9 96.42-13.58 96.14-13.25 95.69-13.25L95.69-13.25Q95.49-13.25 94.94-13.4L94.94-13.4Q94.74-12.35 94.64-11.35 94.54-10.35 94.54-9.35L94.54-9.35Q94.54-7.45 95.12-5.98 95.69-4.5 97.39-4.15L97.39-4.15Q97.84-4.05 98.12-3.85 98.39-3.65 98.39-3L98.39-3Q98.39-2.45 98.12-1.6 97.84-0.75 97.06-0.08 96.29 0.6 94.84 0.6L94.84 0.6Q92.89 0.6 91.84-0.83 90.79-2.25 90.79-4.9L90.79-4.9Q89.44-2.45 87.37-0.9 85.29 0.65 82.49 0.65ZM84.09-4.55L84.09-4.55Q86.09-4.55 87.62-5.8 89.14-7.05 89.99-8.95L89.99-8.95Q90.54-10.15 90.84-11.58 91.14-13 91.24-14.4L91.24-14.4Q90.39-14.8 89.29-15.05 88.19-15.3 86.99-15.3L86.99-15.3Q83.94-15.3 81.97-13.5 79.99-11.7 79.99-9L79.99-9Q79.99-7 81.09-5.78 82.19-4.55 84.09-4.55ZM104.29 0.55L104.29 0.55Q102.49 0.55 102.69-0.65L102.69-0.65Q103.24-2.8 103.61-5.03 103.99-7.25 103.99-9.3L103.99-9.3Q103.99-11.95 103.66-13.18 103.34-14.4 102.79-14.88 102.24-15.35 101.44-15.6L101.44-15.6Q101.09-15.75 100.81-16 100.54-16.25 100.54-16.7L100.54-16.7Q100.54-17.4 101.09-18.25 101.64-19.1 102.66-19.73 103.69-20.35 104.99-20.35L104.99-20.35Q106.69-20.35 107.34-19.18 107.99-18 107.99-16.1L107.99-16.1Q107.99-14.85 107.74-13.3 107.49-11.75 107.24-10.5L107.24-10.5 107.34-10.45Q108.14-13.1 109.31-15.35 110.49-17.6 112.16-19 113.84-20.4 116.04-20.4L116.04-20.4Q118.29-20.4 119.59-18.88 120.89-17.35 120.89-14.4L120.89-14.4 120.89-13.3Q122.34-16.35 124.41-18.4 126.49-20.45 129.44-20.45L129.44-20.45Q131.84-20.45 133.19-18.85 134.54-17.25 134.54-14.85L134.54-14.85Q134.54-13.9 134.34-13.03 134.14-12.15 133.89-11.3L133.89-11.3Q133.69-10.5 133.49-9.65 133.29-8.8 133.29-7.95L133.29-7.95Q133.29-4.95 135.84-4.05L135.84-4.05Q136.19-3.9 136.39-3.73 136.59-3.55 136.59-3.1L136.59-3.1Q136.59-2.65 136.31-1.8 136.04-0.95 135.24-0.23 134.44 0.5 132.94 0.5L132.94 0.5Q130.99 0.5 129.94-0.93 128.89-2.35 128.89-4.55L128.89-4.55Q128.89-5.65 129.09-6.85 129.29-8.05 129.59-9.15L129.59-9.15Q129.84-10.15 130.01-11.05 130.19-11.95 130.19-12.6L130.19-12.6Q130.19-13.8 129.61-14.35 129.04-14.9 128.09-14.9L128.09-14.9Q126.49-14.9 125.21-13.9 123.94-12.9 122.96-11.3 121.99-9.7 121.29-7.8L121.29-7.8Q121.34-7.35 121.36-6.63 121.39-5.9 121.39-5.35L121.39-5.35Q121.39-4.4 121.26-3.35 121.14-2.3 120.79-1.6L120.79-1.6Q120.39-0.65 119.61-0.05 118.84 0.55 117.54 0.55L117.54 0.55Q116.99 0.55 116.49 0.33 115.99 0.1 115.99-0.4L115.99-0.4Q115.99-0.6 116.29-2.18 116.59-3.75 116.89-6.05 117.19-8.35 117.19-10.55L117.19-10.55Q117.19-12.95 116.69-13.88 116.19-14.8 115.19-14.8L115.19-14.8Q113.94-14.8 112.81-13.75 111.69-12.7 110.76-11.05 109.84-9.4 109.16-7.6 108.49-5.8 108.09-4.25L108.09-4.25 108.09-3.7Q108.09-1.85 107.06-0.65 106.04 0.55 104.29 0.55ZM147.04 0.65L147.04 0.65Q143.54 0.65 141.56-1.48 139.59-3.6 139.59-7.4L139.59-7.4Q139.59-11.15 141.19-14.1 142.79-17.05 145.59-18.75 148.39-20.45 151.94-20.45L151.94-20.45Q154.34-20.45 155.74-19.65 157.14-18.85 157.14-17.45L157.14-17.45Q157.14-16.2 155.94-15L155.94-15Q155.49-14.55 154.76-14.18 154.04-13.8 153.64-13.8L153.64-13.8Q153.19-13.8 152.89-14.15L152.89-14.15Q152.39-14.7 151.59-15.2 150.79-15.7 149.34-15.7L149.34-15.7Q146.89-15.7 145.34-14.03 143.79-12.35 143.79-9.65L143.79-9.65Q143.79-7.2 145.19-5.7 146.59-4.2 148.89-4.2L148.89-4.2Q150.09-4.2 151.51-4.63 152.94-5.05 154.04-5.85L154.04-5.85Q154.59-6.35 155.19-6.35L155.19-6.35Q156.19-6.35 156.19-5.1L156.19-5.1Q156.19-3.45 154.54-1.95L154.54-1.95Q153.29-0.8 151.21-0.08 149.14 0.65 147.04 0.65ZM168.18 0.65L168.18 0.65Q164.73 0.65 162.66-1.23 160.58-3.1 160.58-6.75L160.58-6.75Q160.58-8.45 161.06-10.05 161.53-11.65 162.33-13.05L162.33-13.05Q161.53-12.55 161.13-12.55L161.13-12.55Q160.53-12.55 160.31-13.23 160.08-13.9 160.08-14.55L160.08-14.55Q160.08-15.7 160.56-16.38 161.03-17.05 161.48-17.4L161.48-17.4Q162.53-18.3 164.78-19.38 167.03-20.45 170.18-20.45L170.18-20.45Q174.48-20.45 176.86-18.05 179.23-15.65 179.23-11.35L179.23-11.35Q179.23-8 177.83-5.28 176.43-2.55 173.96-0.95 171.48 0.65 168.18 0.65ZM169.73-4.45L169.73-4.45Q172.23-4.45 173.96-6.03 175.68-7.6 175.68-10.2L175.68-10.2Q175.68-12.9 173.93-14.05 172.18-15.2 169.88-15.2L169.88-15.2Q168.83-15.2 167.98-15 167.13-14.8 166.38-14.5L166.38-14.5Q165.68-13.5 165.13-12.25 164.58-11 164.58-9.5L164.58-9.5Q164.58-7 166.08-5.73 167.58-4.45 169.73-4.45ZM185.88 0.55L185.88 0.55Q184.08 0.55 184.28-0.65L184.28-0.65Q184.83-2.8 185.21-5.03 185.58-7.25 185.58-9.3L185.58-9.3Q185.58-11.95 185.26-13.18 184.93-14.4 184.38-14.88 183.83-15.35 183.03-15.6L183.03-15.6Q182.68-15.75 182.41-16 182.13-16.25 182.13-16.7L182.13-16.7Q182.13-17.4 182.68-18.25 183.23-19.1 184.26-19.73 185.28-20.35 186.58-20.35L186.58-20.35Q188.28-20.35 188.93-19.18 189.58-18 189.58-16.1L189.58-16.1Q189.58-14.85 189.33-13.3 189.08-11.75 188.83-10.5L188.83-10.5 188.98-10.45Q189.98-13.1 191.41-15.38 192.83-17.65 194.73-19.05 196.63-20.45 199.13-20.45L199.13-20.45Q201.78-20.45 203.18-18.85 204.58-17.25 204.58-14.85L204.58-14.85Q204.58-13.85 204.36-12.95 204.13-12.05 203.88-11.2L203.88-11.2Q203.63-10.4 203.46-9.55 203.28-8.7 203.28-7.85L203.28-7.85Q203.28-5 205.98-4L205.98-4Q206.68-3.7 206.68-3.1L206.68-3.1Q206.68-2.65 206.38-1.8 206.08-0.95 205.28-0.23 204.48 0.5 202.93 0.5L202.93 0.5Q200.93 0.5 199.83-0.93 198.73-2.35 198.73-4.55L198.73-4.55Q198.73-5.8 199.01-7.08 199.28-8.35 199.58-9.45L199.58-9.45Q199.78-10.3 199.96-11.13 200.13-11.95 200.13-12.6L200.13-12.6Q200.13-14.9 197.73-14.9L197.73-14.9Q195.68-14.9 194.13-13.38 192.58-11.85 191.48-9.55 190.38-7.25 189.68-4.9L189.68-4.9 189.68-3.7Q189.68-1.85 188.66-0.65 187.63 0.55 185.88 0.55ZM212.68 0.55L212.68 0.55Q210.88 0.55 211.08-0.65L211.08-0.65Q211.63-2.8 212-5.03 212.38-7.25 212.38-9.3L212.38-9.3Q212.38-11.95 212.05-13.18 211.73-14.4 211.18-14.88 210.63-15.35 209.83-15.6L209.83-15.6Q209.48-15.75 209.2-16 208.93-16.25 208.93-16.7L208.93-16.7Q208.93-17.4 209.48-18.25 210.03-19.1 211.05-19.73 212.08-20.35 213.38-20.35L213.38-20.35Q215.08-20.35 215.73-19.18 216.38-18 216.38-16.1L216.38-16.1Q216.38-14.85 216.13-13.3 215.88-11.75 215.63-10.5L215.63-10.5 215.78-10.45Q216.78-13.1 218.2-15.38 219.63-17.65 221.53-19.05 223.43-20.45 225.93-20.45L225.93-20.45Q228.58-20.45 229.98-18.85 231.38-17.25 231.38-14.85L231.38-14.85Q231.38-13.85 231.15-12.95 230.93-12.05 230.68-11.2L230.68-11.2Q230.43-10.4 230.25-9.55 230.08-8.7 230.08-7.85L230.08-7.85Q230.08-5 232.78-4L232.78-4Q233.48-3.7 233.48-3.1L233.48-3.1Q233.48-2.65 233.18-1.8 232.88-0.95 232.08-0.23 231.28 0.5 229.73 0.5L229.73 0.5Q227.73 0.5 226.63-0.93 225.53-2.35 225.53-4.55L225.53-4.55Q225.53-5.8 225.8-7.08 226.08-8.35 226.38-9.45L226.38-9.45Q226.58-10.3 226.75-11.13 226.93-11.95 226.93-12.6L226.93-12.6Q226.93-14.9 224.53-14.9L224.53-14.9Q222.48-14.9 220.93-13.38 219.38-11.85 218.28-9.55 217.18-7.25 216.48-4.9L216.48-4.9 216.48-3.7Q216.48-1.85 215.45-0.65 214.43 0.55 212.68 0.55ZM244.53 0.65L244.53 0.65Q240.73 0.65 238.6-1.53 236.48-3.7 236.48-7.6L236.48-7.6Q236.48-11.15 238.03-14.05 239.58-16.95 242.2-18.68 244.83-20.4 247.98-20.4L247.98-20.4Q250.98-20.4 252.78-18.93 254.58-17.45 254.58-15L254.58-15Q254.58-13.05 253.38-11.4 252.18-9.75 250.18-8.78 248.18-7.8 245.73-7.8L245.73-7.8Q242.73-7.8 240.83-9.15L240.83-9.15Q240.88-6.85 242.4-5.45 243.93-4.05 246.33-4.05L246.33-4.05Q247.78-4.05 249.3-4.58 250.83-5.1 251.93-6L251.93-6Q252.63-6.6 253.23-6.6L253.23-6.6Q253.73-6.6 254.05-6.28 254.38-5.95 254.38-5.45L254.38-5.45Q254.38-4.35 252.48-2.55L252.48-2.55Q249.13 0.65 244.53 0.65ZM245.28-11.1L245.28-11.1Q247.08-11.1 248.28-11.85 249.48-12.6 249.48-13.75L249.48-13.75Q249.48-14.7 248.68-15.23 247.88-15.75 246.48-15.75L246.48-15.75Q244.63-15.75 243.25-14.78 241.88-13.8 241.28-12.05L241.28-12.05Q241.98-11.6 243.08-11.35 244.18-11.1 245.28-11.1ZM265.47 0.65L265.47 0.65Q261.97 0.65 260-1.48 258.02-3.6 258.02-7.4L258.02-7.4Q258.02-11.15 259.62-14.1 261.22-17.05 264.02-18.75 266.82-20.45 270.37-20.45L270.37-20.45Q272.77-20.45 274.17-19.65 275.57-18.85 275.57-17.45L275.57-17.45Q275.57-16.2 274.37-15L274.37-15Q273.92-14.55 273.2-14.18 272.47-13.8 272.07-13.8L272.07-13.8Q271.62-13.8 271.32-14.15L271.32-14.15Q270.82-14.7 270.02-15.2 269.22-15.7 267.77-15.7L267.77-15.7Q265.32-15.7 263.77-14.03 262.22-12.35 262.22-9.65L262.22-9.65Q262.22-7.2 263.62-5.7 265.02-4.2 267.32-4.2L267.32-4.2Q268.52-4.2 269.95-4.63 271.37-5.05 272.47-5.85L272.47-5.85Q273.02-6.35 273.62-6.35L273.62-6.35Q274.62-6.35 274.62-5.1L274.62-5.1Q274.62-3.45 272.97-1.95L272.97-1.95Q271.72-0.8 269.65-0.08 267.57 0.65 265.47 0.65ZM285.77 0.65L285.77 0.65Q282.72 0.65 281.4-1.38 280.07-3.4 280.07-6.6L280.07-6.6Q280.07-7.75 280.2-8.85 280.32-9.95 280.47-11.05L280.47-11.05Q280.62-12.15 280.77-13.2 280.92-14.25 281.02-15.2L281.02-15.2Q279.97-14.9 278.92-14.9L278.92-14.9Q277.82-14.9 277.82-15.8L277.82-15.8Q277.82-16.75 278.67-18.13 279.52-19.5 280.8-20.85 282.07-22.2 283.35-23.13 284.62-24.05 285.52-24.05L285.52-24.05Q286.62-24.05 286.62-22.15L286.62-22.15Q286.62-21.65 286.55-21.13 286.47-20.6 286.37-20.05L286.37-20.05Q287.32-20.25 288.3-20.4 289.27-20.55 290.17-20.55L290.17-20.55Q291.32-20.55 291.95-20.15 292.57-19.75 292.57-18.6L292.57-18.6Q292.57-17.4 292-16.2 291.42-15 290.72-15L290.72-15Q290.57-15 290.22-15.05 289.87-15.1 289.37-15.2L289.37-15.2Q288.72-15.35 287.72-15.5 286.72-15.65 285.32-15.65L285.32-15.65Q284.97-14.1 284.7-12.48 284.42-10.85 284.42-9.55L284.42-9.55Q284.42-6.65 285.87-5.6 287.32-4.55 290.07-4.55L290.07-4.55Q290.92-4.55 291.27-4.28 291.62-4 291.62-3.3L291.62-3.3Q291.62-1.65 289.92-0.5 288.22 0.65 285.77 0.65Z" opacity="1" transform="matrix(1,0,0,1,0,0)" fill="#e33e33" class="wordmark-text-0" data-fill-palette-color="primary" id="text-0"></path></svg></g></svg></g></svg></g></svg></g><g><svg viewBox="0 0 121.39957613601233 121.39957613601233" height="121.39957613601233" width="121.39957613601233"><g><svg viewBox="0 0 121.39957613601233 121.39957613601233" height="121.39957613601233" width="121.39957613601233"><g transform="matrix(1,0,0,1,32.085633561690535,32.09036152589161)"><svg viewBox="0 0 57.22830901263126 57.21885308422912" height="57.21885308422912" width="57.22830901263126"><g><svg xmlns="http://www.w3.org/2000/svg" xmlns:xlink="http://www.w3.org/1999/xlink" version="1.1" x="0" y="0" viewBox="2 2.00392955182452 48.00000156803488 47.99207044817548" enable-background="new 0 0 52 52" xml:space="preserve" height="57.21885308422912" width="57.22830901263126" class="icon-dxe-0" data-fill-palette-color="accent" id="dxe-0"><g fill="#e33e33" data-fill-palette-color="accent"><g fill="#e33e33" data-fill-palette-color="accent"><path d="M36 49.996H6C3.794 49.996 2 48.202 2 45.996V25.996C2 23.791 3.794 21.996 6 21.996H36C38.206 21.996 40 23.791 40 25.996V45.996C40 48.202 38.206 49.996 36 49.996M6 23.996C4.897 23.996 4 24.893 4 25.996V45.996C4 47.1 4.897 47.996 6 47.996H36C37.103 47.996 38 47.1 38 45.996V25.996C38 24.893 37.103 23.996 36 23.996z" fill="#e33e33" data-fill-palette-color="accent"></path></g><g fill="#e33e33" data-fill-palette-color="accent"><path d="M29 45.996H13C11.897 45.996 11 45.1 11 43.996V27.996C11 26.893 11.897 25.996 13 25.996H29C30.103 25.996 31 26.893 31 27.996V43.996C31 45.1 30.103 45.996 29 45.996M13 27.996V43.996H29.001L29 27.996z" fill="#e33e33" data-fill-palette-color="accent"></path></g><g fill="#e33e33" data-fill-palette-color="accent"><path d="M18 40.996A1 1 0 0 1 17 39.996V31.996A1 1 0 0 1 18.447 31.102L26.447 35.102A1 1 0 0 1 26.447 36.89L18.447 40.89C18.307 40.96 18.153 40.996 18 40.996M19 33.614V38.378L23.764 35.996z" fill="#e33e33" data-fill-palette-color="accent"></path></g><g fill="#e33e33" data-fill-palette-color="accent"><path d="M49 47.996C48.875 47.996 48.749 47.973 48.628 47.925L38.628 43.925A1 1 0 0 1 38 42.996V28.996C38 28.587 38.249 28.22 38.628 28.067L48.628 24.067A1 1 0 0 1 50 24.997V46.996A1 1 0 0 1 49 47.996M40 42.32L48 45.519V26.473L40 29.673z" fill="#e33e33" data-fill-palette-color="accent"></path></g><g fill="#e33e33" data-fill-palette-color="accent"><path d="M37.314 8.683A1 1 0 0 1 36.607 8.39C30.758 2.54 21.242 2.542 15.394 8.39A1 1 0 1 1 13.979 6.976 16.9 16.9 0 0 1 26 2.004C30.546 2.004 34.815 3.77 38.021 6.976A1 1 0 0 1 37.314 8.683" fill="#e33e33" data-fill-palette-color="accent"></path></g><g fill="#e33e33" data-fill-palette-color="accent"><path d="M33.778 13.218A1 1 0 0 1 33.071 12.925C31.186 11.04 28.674 10.001 26 10.001S20.814 11.04 18.93 12.925A1 1 0 1 1 17.514 11.511C19.778 9.248 22.792 8.001 26 8.001S32.222 9.248 34.485 11.511A1 1 0 0 1 33.778 13.218" fill="#e33e33" data-fill-palette-color="accent"></path></g><g fill="#e33e33" data-fill-palette-color="accent"><path d="M30.243 17.754A1 1 0 0 1 29.536 17.46 5.006 5.006 0 0 0 22.464 17.46 1 1 0 1 1 21.05 16.047 7.007 7.007 0 0 1 30.95 16.047 1 1 0 0 1 30.243 17.754" fill="#e33e33" data-fill-palette-color="accent"></path></g></g></svg></g></svg></g><g id="text-0"><path d="M8.79 44.53v0c-0.111 0.356-0.267 0.672-0.469 0.949-0.202 0.277-0.428 0.481-0.679 0.612-0.259 0.136-0.524 0.162-0.793 0.078v0c-0.145-0.045-0.269-0.123-0.372-0.235-0.109-0.113-0.138-0.253-0.087-0.417v0c0.027-0.086 0.078-0.171 0.156-0.255v0c0.152-0.14 0.31-0.333 0.473-0.579 0.17-0.243 0.302-0.517 0.396-0.82v0c0.105-0.336 0.148-0.648 0.129-0.935-0.017-0.294-0.111-0.468-0.282-0.521v0c-0.132-0.041-0.258 0.028-0.379 0.207-0.121 0.179-0.286 0.489-0.496 0.929v0c-0.16 0.304-0.325 0.592-0.496 0.864-0.165 0.274-0.373 0.48-0.626 0.618-0.244 0.134-0.55 0.143-0.92 0.028v0c-0.356-0.111-0.667-0.316-0.935-0.616-0.274-0.302-0.462-0.686-0.563-1.151-0.094-0.463-0.053-0.978 0.124-1.544v0c0.094-0.303 0.218-0.583 0.369-0.839 0.154-0.263 0.328-0.461 0.522-0.596 0.189-0.143 0.386-0.183 0.59-0.12v0c0.171 0.053 0.311 0.162 0.419 0.326 0.108 0.164 0.182 0.342 0.223 0.536 0.043 0.187 0.048 0.333 0.016 0.438v0c-0.025 0.079-0.106 0.155-0.245 0.227v0c-0.188 0.115-0.338 0.263-0.452 0.444-0.114 0.181-0.202 0.371-0.264 0.569v0c-0.09 0.29-0.12 0.537-0.09 0.741 0.037 0.207 0.121 0.33 0.253 0.372v0c0.125 0.039 0.251-0.005 0.377-0.132 0.12-0.129 0.233-0.296 0.34-0.501 0.103-0.214 0.199-0.419 0.289-0.615v0c0.251-0.529 0.521-0.929 0.808-1.201 0.294-0.27 0.678-0.331 1.151-0.183v0c0.362 0.113 0.692 0.331 0.989 0.655 0.299 0.317 0.503 0.706 0.612 1.166 0.109 0.46 0.08 0.961-0.088 1.501z" fill="#e33e33" data-fill-palette-color="accent"></path><path d="M12.993 34.623v0c-0.29 0.541-0.677 0.835-1.164 0.88-0.486 0.045-1.015-0.085-1.586-0.391v0c-0.207-0.111-0.401-0.23-0.583-0.359-0.182-0.128-0.363-0.257-0.545-0.385v0c-0.182-0.128-0.359-0.258-0.531-0.39-0.176-0.125-0.344-0.243-0.504-0.352v0c-0.046 0.218-0.118 0.418-0.216 0.601v0c-0.104 0.195-0.235 0.25-0.393 0.165v0c-0.17-0.091-0.338-0.275-0.503-0.551-0.162-0.282-0.303-0.604-0.423-0.966-0.117-0.352-0.197-0.684-0.241-0.997-0.05-0.316-0.031-0.556 0.057-0.721v0c0.104-0.195 0.327-0.201 0.668-0.018v0c0.091 0.049 0.179 0.104 0.264 0.165 0.085 0.061 0.171 0.127 0.258 0.197v0c0.057-0.181 0.118-0.367 0.182-0.56 0.07-0.189 0.147-0.363 0.232-0.522v0c0.107-0.201 0.229-0.339 0.364-0.416 0.126-0.074 0.292-0.055 0.498 0.056v0c0.213 0.114 0.398 0.28 0.556 0.497 0.158 0.217 0.204 0.387 0.139 0.508v0c-0.013 0.024-0.04 0.068-0.083 0.132-0.045 0.054-0.101 0.122-0.168 0.204v0c-0.086 0.103-0.189 0.236-0.307 0.399-0.125 0.16-0.254 0.365-0.387 0.614v0c0.247 0.211 0.501 0.417 0.76 0.619 0.266 0.205 0.514 0.369 0.746 0.492v0c0.511 0.273 0.929 0.333 1.254 0.179 0.325-0.155 0.62-0.478 0.884-0.971v0c0.081-0.152 0.163-0.246 0.244-0.281 0.081-0.035 0.183-0.02 0.304 0.046v0c0.298 0.159 0.468 0.442 0.509 0.847 0.044 0.415-0.051 0.841-0.285 1.279z" fill="#e33e33" data-fill-palette-color="accent"></path><path d="M17.526 27.625v0c-0.099 0.124-0.2 0.207-0.304 0.248-0.103 0.041-0.196 0.007-0.276-0.102v0c-0.271-0.357-0.559-0.705-0.863-1.043-0.304-0.339-0.617-0.637-0.941-0.895v0c-0.421-0.335-0.747-0.551-0.979-0.647-0.233-0.106-0.424-0.143-0.572-0.112-0.144 0.026-0.285 0.086-0.422 0.18v0c-0.07 0.032-0.141 0.055-0.213 0.069-0.072 0.013-0.146-0.01-0.222-0.071v0c-0.108-0.086-0.195-0.226-0.261-0.42-0.066-0.194-0.086-0.408-0.058-0.641 0.027-0.234 0.123-0.453 0.286-0.659v0c0.215-0.27 0.457-0.386 0.727-0.347 0.269 0.038 0.555 0.178 0.857 0.418v0c-0.201-0.39-0.313-0.765-0.334-1.126-0.02-0.351 0.096-0.686 0.35-1.004v0c0.168-0.21 0.355-0.352 0.563-0.425 0.209-0.063 0.419-0.011 0.629 0.157v0c0.216 0.172 0.36 0.401 0.432 0.688 0.081 0.285 0.066 0.498-0.045 0.638v0c-0.021 0.027-0.051 0.052-0.088 0.076-0.031 0.028-0.072 0.04-0.121 0.036v0c-0.211-0.001-0.377 0.075-0.497 0.226v0c-0.18 0.227-0.188 0.547-0.024 0.96 0.165 0.413 0.505 0.839 1.022 1.276v0c0.199 0.149 0.403 0.303 0.612 0.461 0.209 0.158 0.363 0.276 0.46 0.353v0c0.291 0.232 0.467 0.504 0.527 0.816 0.06 0.312-0.022 0.609-0.245 0.89z" fill="#e33e33" data-fill-palette-color="accent"></path><path d="M25.019 19.736v0c-0.576 0.505-1.17 0.732-1.783 0.682-0.608-0.045-1.171-0.363-1.69-0.955v0c-0.473-0.54-0.786-1.132-0.939-1.778-0.153-0.646-0.143-1.273 0.029-1.882 0.168-0.615 0.49-1.131 0.968-1.55v0c0.457-0.4 0.92-0.609 1.39-0.627 0.47-0.008 0.866 0.172 1.189 0.541v0c0.259 0.296 0.409 0.65 0.451 1.063 0.037 0.408-0.034 0.819-0.213 1.233-0.169 0.414-0.44 0.785-0.814 1.112v0c-0.451 0.396-0.913 0.617-1.386 0.664v0c0.314 0.348 0.681 0.527 1.101 0.535 0.42 0.008 0.811-0.147 1.175-0.465v0c0.218-0.191 0.407-0.43 0.568-0.718 0.165-0.282 0.27-0.566 0.313-0.852v0c0.026-0.179 0.086-0.31 0.18-0.392v0c0.073-0.064 0.155-0.095 0.248-0.093 0.092 0.011 0.172 0.055 0.24 0.133v0c0.145 0.166 0.194 0.509 0.145 1.029v0c-0.081 0.933-0.472 1.707-1.172 2.32zM22.844 16.909v0c0.275-0.241 0.453-0.498 0.535-0.772 0.082-0.273 0.047-0.496-0.103-0.666v0c-0.127-0.145-0.285-0.205-0.472-0.178-0.197 0.026-0.402 0.132-0.615 0.319v0c-0.28 0.246-0.458 0.534-0.534 0.866-0.08 0.327-0.049 0.667 0.094 1.019v0c0.168-0.028 0.351-0.097 0.549-0.206 0.198-0.109 0.38-0.236 0.546-0.382z" fill="#e33e33" data-fill-palette-color="accent"></path><path d="M33.609 13.656v0c-0.532 0.293-1.049 0.362-1.552 0.206-0.509-0.152-0.934-0.536-1.275-1.152v0c-0.243-0.441-0.399-0.93-0.467-1.468-0.071-0.528-0.038-1.062 0.097-1.602 0.133-0.53 0.371-1.028 0.713-1.493 0.342-0.465 0.801-0.855 1.375-1.172v0c0.532-0.293 1.035-0.453 1.509-0.478 0.474-0.025 0.797 0.116 0.967 0.424v0c0.043 0.079 0.091 0.186 0.143 0.323 0.055 0.143 0.092 0.26 0.111 0.352v0c0.006 0.083 0.002 0.168-0.013 0.256-0.018 0.081-0.067 0.143-0.145 0.186v0c-0.036 0.02-0.109 0.045-0.219 0.074v0c0.067 0.207 0.14 0.403 0.218 0.589 0.079 0.185 0.166 0.365 0.263 0.54v0c0.187 0.338 0.403 0.609 0.649 0.812 0.246 0.203 0.538 0.255 0.877 0.154v0c0.089-0.025 0.165-0.036 0.23-0.032 0.068 0.01 0.134 0.072 0.198 0.187v0c0.053 0.097 0.097 0.234 0.132 0.411 0.035 0.178 0.016 0.365-0.056 0.563-0.066 0.194-0.229 0.363-0.489 0.506v0c-0.344 0.19-0.68 0.21-1.007 0.059-0.321-0.154-0.61-0.463-0.867-0.928v0c-0.005 0.562-0.112 1.082-0.321 1.56-0.218 0.475-0.575 0.849-1.071 1.123zM33.275 12.043v0c0.35-0.193 0.6-0.477 0.748-0.85 0.146-0.364 0.201-0.757 0.166-1.178v0c-0.02-0.265-0.073-0.539-0.159-0.823-0.082-0.278-0.183-0.545-0.301-0.803v0c-0.191 0.011-0.395 0.048-0.611 0.113-0.22 0.058-0.436 0.146-0.647 0.262v0c-0.544 0.3-0.899 0.705-1.067 1.215-0.174 0.513-0.129 1.009 0.134 1.486v0c0.193 0.35 0.447 0.581 0.76 0.692 0.313 0.111 0.639 0.073 0.977-0.114z" fill="#e33e33" data-fill-palette-color="accent"></path><path d="M43.536 9.187v0c-0.348 0.088-0.531 0.009-0.55-0.235v0c0.001-0.448-0.017-0.899-0.053-1.353-0.036-0.453-0.105-0.881-0.205-1.282v0c-0.132-0.522-0.26-0.891-0.387-1.108-0.121-0.226-0.247-0.372-0.377-0.439-0.131-0.067-0.282-0.103-0.454-0.109v0c-0.075-0.017-0.146-0.042-0.211-0.075-0.065-0.033-0.11-0.097-0.134-0.191v0c-0.034-0.134-0.018-0.298 0.047-0.492 0.065-0.194 0.182-0.377 0.353-0.548 0.17-0.171 0.383-0.289 0.637-0.352v0c0.334-0.084 0.594-0.029 0.778 0.166 0.184 0.195 0.324 0.48 0.418 0.855v0c0.062 0.248 0.105 0.529 0.127 0.843 0.029 0.313 0.051 0.599 0.067 0.859v0l0.033 0.002c0.024-0.554 0.094-1.08 0.21-1.579 0.123-0.501 0.314-0.929 0.572-1.286 0.259-0.357 0.602-0.589 1.031-0.697v0c0.442-0.111 0.827-0.048 1.157 0.188 0.328 0.23 0.566 0.636 0.713 1.218v0l0.081 0.322c0.138-0.668 0.356-1.253 0.656-1.756 0.307-0.504 0.748-0.829 1.324-0.974v0c0.468-0.118 0.876-0.054 1.222 0.193 0.338 0.242 0.568 0.6 0.688 1.076v0c0.046 0.181 0.073 0.362 0.084 0.544 0.004 0.184-0.001 0.363-0.014 0.537v0c0.007 0.169 0.012 0.342 0.013 0.52 0.002 0.177 0.023 0.346 0.064 0.507v0c0.148 0.589 0.493 0.911 1.033 0.967v0c0.08 0.008 0.145 0.024 0.194 0.047 0.042 0.025 0.074 0.081 0.095 0.168v0c0.022 0.087 0.027 0.221 0.016 0.401-0.011 0.181-0.076 0.361-0.194 0.54-0.123 0.188-0.329 0.318-0.617 0.391v0c-0.381 0.096-0.711 0.03-0.989-0.199-0.278-0.229-0.471-0.557-0.58-0.986v0c-0.054-0.214-0.09-0.443-0.109-0.687-0.019-0.244-0.026-0.484-0.021-0.72v0c-0.002-0.206-0.008-0.4-0.019-0.583-0.012-0.189-0.034-0.347-0.066-0.474v0c-0.059-0.234-0.159-0.39-0.3-0.469-0.141-0.078-0.301-0.095-0.482-0.049v0c-0.314 0.079-0.571 0.247-0.769 0.504-0.204 0.265-0.36 0.575-0.47 0.929-0.115 0.363-0.192 0.749-0.232 1.158v0c0.029 0.085 0.064 0.197 0.107 0.336 0.042 0.139 0.077 0.262 0.103 0.369v0c0.047 0.187 0.084 0.388 0.109 0.602 0.026 0.214 0.022 0.397-0.011 0.547v0c-0.033 0.208-0.108 0.39-0.225 0.548-0.125 0.153-0.315 0.261-0.569 0.324v0c-0.107 0.027-0.216 0.033-0.326 0.019-0.105-0.023-0.171-0.085-0.197-0.186v0c-0.01-0.04-0.024-0.222-0.041-0.544-0.024-0.321-0.062-0.714-0.115-1.177-0.053-0.463-0.134-0.912-0.244-1.348v0c-0.118-0.468-0.25-0.78-0.395-0.935-0.139-0.157-0.309-0.21-0.51-0.16v0c-0.241 0.061-0.445 0.223-0.614 0.486-0.17 0.256-0.304 0.571-0.403 0.945-0.1 0.367-0.172 0.744-0.216 1.132-0.046 0.382-0.067 0.736-0.063 1.062v0l0.041 0.16c0.091 0.361 0.066 0.684-0.076 0.969-0.142 0.285-0.386 0.471-0.735 0.559z" fill="#e33e33" data-fill-palette-color="accent"></path><path d="M60.547 6.392v0c-0.711 0.004-1.264-0.208-1.659-0.633-0.402-0.426-0.605-1.021-0.609-1.787v0c-0.004-0.759 0.155-1.436 0.476-2.031 0.314-0.602 0.754-1.073 1.317-1.414 0.564-0.348 1.205-0.523 1.923-0.527v0c0.483-0.002 0.866 0.075 1.149 0.232 0.284 0.164 0.426 0.388 0.428 0.671v0c0.001 0.248-0.118 0.494-0.358 0.736v0c-0.089 0.09-0.206 0.174-0.351 0.251-0.151 0.077-0.265 0.115-0.341 0.115v0c-0.09 0-0.166-0.034-0.228-0.102v0c-0.104-0.11-0.236-0.216-0.395-0.319-0.166-0.096-0.394-0.143-0.684-0.142v0c-0.497 0.002-0.899 0.174-1.208 0.514-0.309 0.34-0.462 0.782-0.459 1.326v0c0.002 0.49 0.146 0.886 0.43 1.188 0.284 0.302 0.658 0.452 1.12 0.45v0c0.241-0.001 0.507-0.044 0.796-0.128 0.282-0.091 0.534-0.217 0.754-0.376v0c0.117-0.104 0.234-0.156 0.351-0.157v0c0.2-0.001 0.301 0.126 0.302 0.381v0c0.002 0.331-0.162 0.649-0.492 0.955v0c-0.254 0.236-0.588 0.427-1.001 0.574-0.42 0.147-0.841 0.222-1.261 0.223z" fill="#e33e33" data-fill-palette-color="accent"></path><path d="M71.382 7.463v0c-0.683-0.136-1.195-0.431-1.533-0.885-0.339-0.454-0.437-1.04-0.294-1.758v0c0.067-0.338 0.18-0.657 0.337-0.956 0.158-0.299 0.346-0.571 0.564-0.816v0c-0.183 0.069-0.314 0.096-0.396 0.079v0c-0.115-0.023-0.183-0.107-0.203-0.251-0.014-0.143-0.008-0.279 0.018-0.408v0c0.044-0.223 0.127-0.393 0.249-0.51 0.122-0.116 0.233-0.2 0.334-0.25v0c0.238-0.136 0.602-0.267 1.092-0.395 0.488-0.121 1.044-0.12 1.666 0.004v0c0.853 0.17 1.465 0.538 1.838 1.104 0.379 0.568 0.484 1.278 0.315 2.131v0c-0.132 0.663-0.39 1.238-0.776 1.724-0.384 0.479-0.851 0.83-1.401 1.051-0.557 0.22-1.161 0.265-1.81 0.136zM72.139 6.041v0c0.494 0.098 0.944 0.026 1.352-0.216 0.4-0.244 0.651-0.623 0.754-1.138v0c0.106-0.535 0.01-0.951-0.29-1.25-0.299-0.299-0.679-0.494-1.139-0.585v0c-0.203-0.04-0.393-0.057-0.571-0.05-0.177 0.007-0.346 0.026-0.507 0.057v0c-0.174 0.169-0.344 0.368-0.509 0.596-0.157 0.222-0.265 0.482-0.323 0.779v0c-0.098 0.494-0.024 0.899 0.222 1.216 0.248 0.31 0.585 0.507 1.011 0.591z" fill="#e33e33" data-fill-palette-color="accent"></path><path d="M80.757 10.203v0c-0.328-0.146-0.423-0.321-0.287-0.525v0c0.278-0.352 0.543-0.717 0.795-1.096 0.252-0.379 0.463-0.757 0.632-1.135v0c0.219-0.491 0.347-0.861 0.382-1.109 0.045-0.252 0.036-0.445-0.025-0.578-0.061-0.133-0.158-0.256-0.29-0.368v0c-0.049-0.06-0.089-0.123-0.119-0.189-0.031-0.067-0.026-0.144 0.013-0.232v0c0.056-0.126 0.17-0.245 0.341-0.358 0.171-0.112 0.376-0.183 0.616-0.212 0.24-0.029 0.479 0.01 0.719 0.117v0c0.315 0.141 0.484 0.345 0.508 0.612 0.024 0.268-0.043 0.578-0.2 0.931v0c-0.104 0.233-0.245 0.48-0.422 0.741-0.171 0.264-0.33 0.502-0.478 0.716v0l0.034 0.026c0.399-0.404 0.825-0.757 1.278-1.061 0.45-0.298 0.906-0.498 1.368-0.602 0.468-0.101 0.932-0.048 1.392 0.157v0c0.491 0.219 0.8 0.535 0.926 0.946 0.129 0.405 0.093 0.831-0.106 1.279v0c-0.082 0.183-0.181 0.346-0.298 0.49-0.12 0.15-0.236 0.291-0.347 0.423v0c-0.112 0.132-0.218 0.269-0.321 0.412-0.105 0.134-0.193 0.28-0.263 0.438v0c-0.236 0.529-0.146 0.996 0.27 1.401v0c0.107 0.116 0.137 0.227 0.088 0.334v0c-0.037 0.082-0.118 0.189-0.245 0.321-0.127 0.132-0.292 0.232-0.496 0.3-0.207 0.074-0.455 0.046-0.745-0.083v0c-0.365-0.163-0.59-0.422-0.673-0.777-0.09-0.357-0.045-0.738 0.135-1.141v0c0.104-0.233 0.233-0.455 0.388-0.665 0.154-0.211 0.305-0.404 0.452-0.581v0c0.108-0.141 0.212-0.279 0.31-0.416 0.102-0.143 0.179-0.275 0.233-0.395v0c0.188-0.422 0.062-0.732-0.379-0.928v0c-0.378-0.169-0.772-0.175-1.182-0.018-0.414 0.148-0.817 0.391-1.209 0.729-0.39 0.332-0.745 0.687-1.066 1.066v0l-0.147 0.33c-0.152 0.34-0.372 0.578-0.659 0.715-0.287 0.136-0.595 0.131-0.923-0.015z" fill="#e33e33" data-fill-palette-color="accent"></path><path d="M91.768 16.114v0c-0.286-0.217-0.339-0.409-0.16-0.576v0c0.351-0.279 0.692-0.574 1.024-0.886 0.332-0.311 0.623-0.631 0.874-0.961v0c0.326-0.428 0.534-0.76 0.625-0.993 0.101-0.235 0.137-0.425 0.107-0.569-0.029-0.144-0.095-0.285-0.198-0.423v0c-0.034-0.069-0.058-0.14-0.073-0.212-0.015-0.072 0.007-0.146 0.065-0.223v0c0.083-0.11 0.221-0.2 0.414-0.271 0.192-0.071 0.408-0.093 0.648-0.066 0.24 0.026 0.464 0.119 0.673 0.277v0c0.275 0.209 0.393 0.446 0.356 0.713-0.038 0.266-0.173 0.553-0.407 0.86v0c-0.154 0.203-0.348 0.412-0.58 0.626-0.226 0.218-0.436 0.414-0.629 0.588v0l0.027 0.033c0.481-0.302 0.976-0.549 1.487-0.742 0.506-0.187 0.996-0.279 1.469-0.274 0.479 0.009 0.919 0.165 1.32 0.47v0c0.428 0.326 0.657 0.703 0.686 1.132 0.033 0.424-0.098 0.831-0.395 1.221v0c-0.121 0.159-0.255 0.296-0.402 0.409-0.151 0.119-0.296 0.23-0.435 0.333v0c-0.139 0.103-0.274 0.212-0.405 0.328-0.133 0.107-0.252 0.229-0.357 0.366v0c-0.351 0.461-0.369 0.937-0.056 1.426v0c0.078 0.137 0.081 0.252 0.01 0.346v0c-0.054 0.071-0.158 0.157-0.312 0.257-0.154 0.1-0.338 0.159-0.552 0.178-0.218 0.025-0.454-0.059-0.706-0.251v0c-0.319-0.242-0.478-0.545-0.479-0.909-0.006-0.368 0.125-0.728 0.392-1.08v0c0.154-0.203 0.331-0.39 0.529-0.56 0.198-0.17 0.389-0.324 0.573-0.462v0c0.137-0.112 0.27-0.224 0.397-0.335 0.132-0.116 0.237-0.227 0.317-0.331v0c0.28-0.368 0.227-0.698-0.158-0.99v0c-0.33-0.25-0.712-0.346-1.146-0.287-0.436 0.05-0.884 0.194-1.344 0.435-0.455 0.234-0.882 0.499-1.28 0.794v0l-0.22 0.289c-0.225 0.297-0.494 0.478-0.804 0.545-0.311 0.067-0.609-0.008-0.895-0.225z" fill="#e33e33" data-fill-palette-color="accent"></path><path d="M102.165 25.592v0c-0.498-0.582-0.718-1.179-0.66-1.791 0.052-0.608 0.377-1.167 0.975-1.678v0c0.545-0.466 1.142-0.772 1.789-0.917 0.647-0.145 1.275-0.128 1.883 0.051 0.613 0.175 1.125 0.504 1.537 0.986v0c0.395 0.461 0.598 0.927 0.61 1.399 0.002 0.47-0.182 0.864-0.554 1.182v0c-0.299 0.256-0.655 0.401-1.069 0.438-0.409 0.032-0.819-0.044-1.23-0.229-0.412-0.174-0.78-0.45-1.103-0.827v0c-0.39-0.456-0.606-0.921-0.647-1.394v0c-0.352 0.31-0.535 0.675-0.548 1.095-0.013 0.42 0.137 0.813 0.451 1.18v0c0.188 0.22 0.425 0.412 0.711 0.577 0.28 0.169 0.563 0.276 0.848 0.323v0c0.179 0.029 0.309 0.09 0.39 0.185v0c0.063 0.073 0.093 0.157 0.09 0.249-0.012 0.092-0.057 0.172-0.136 0.239v0c-0.168 0.143-0.511 0.188-1.03 0.132v0c-0.932-0.092-1.701-0.493-2.307-1.2zM105.019 23.451v0c0.238 0.278 0.493 0.459 0.765 0.545 0.272 0.085 0.495 0.053 0.668-0.095v0c0.147-0.126 0.208-0.282 0.183-0.47-0.024-0.198-0.127-0.404-0.311-0.619v0c-0.242-0.283-0.529-0.465-0.86-0.544-0.326-0.084-0.666-0.057-1.02 0.082v0c0.026 0.168 0.092 0.352 0.199 0.551 0.107 0.199 0.232 0.383 0.376 0.55z" fill="#e33e33" data-fill-palette-color="accent"></path><path d="M108.32 34.509v0c-0.345-0.621-0.425-1.208-0.242-1.759 0.18-0.557 0.605-1.022 1.274-1.394v0c0.664-0.368 1.334-0.554 2.01-0.558 0.679-0.014 1.303 0.145 1.873 0.476 0.576 0.327 1.038 0.805 1.386 1.432v0c0.234 0.422 0.35 0.796 0.349 1.12-0.008 0.328-0.135 0.56-0.382 0.698v0c-0.217 0.12-0.49 0.134-0.819 0.039v0c-0.122-0.035-0.251-0.097-0.387-0.187-0.14-0.096-0.228-0.177-0.266-0.243v0c-0.043-0.078-0.05-0.162-0.019-0.25v0c0.046-0.144 0.076-0.311 0.089-0.499 0.004-0.192-0.064-0.414-0.204-0.668v0c-0.241-0.434-0.584-0.705-1.031-0.813-0.446-0.108-0.908-0.029-1.384 0.235v0c-0.428 0.238-0.707 0.554-0.835 0.949-0.128 0.395-0.08 0.794 0.144 1.198v0c0.117 0.211 0.282 0.423 0.495 0.636 0.216 0.204 0.446 0.364 0.692 0.48v0c0.147 0.052 0.249 0.13 0.306 0.233v0c0.097 0.175 0.034 0.324-0.189 0.448v0c-0.29 0.161-0.647 0.17-1.073 0.027v0c-0.329-0.109-0.657-0.31-0.985-0.602-0.331-0.298-0.598-0.631-0.802-0.998z" fill="#e33e33" data-fill-palette-color="accent"></path><path d="M112.553 44.306v0c-0.192-0.583-0.137-1.066 0.166-1.449 0.303-0.383 0.762-0.676 1.378-0.878v0c0.223-0.073 0.443-0.131 0.661-0.174 0.218-0.043 0.437-0.086 0.655-0.128v0c0.218-0.043 0.434-0.081 0.649-0.116 0.212-0.041 0.413-0.081 0.602-0.122v0c-0.126-0.184-0.221-0.374-0.285-0.57v0c-0.069-0.21-0.018-0.343 0.152-0.399v0c0.183-0.06 0.432-0.055 0.746 0.016 0.316 0.078 0.646 0.198 0.99 0.361 0.335 0.158 0.631 0.33 0.888 0.514 0.263 0.182 0.424 0.362 0.482 0.538v0c0.069 0.21-0.08 0.375-0.447 0.496v0c-0.098 0.032-0.199 0.058-0.301 0.077-0.103 0.019-0.21 0.036-0.321 0.051v0c0.091 0.166 0.184 0.339 0.28 0.519 0.089 0.181 0.161 0.357 0.217 0.527v0c0.071 0.216 0.088 0.4 0.05 0.55-0.033 0.142-0.161 0.249-0.384 0.323v0c-0.229 0.075-0.477 0.095-0.743 0.059-0.266-0.036-0.421-0.119-0.464-0.25v0c-0.009-0.026-0.022-0.076-0.039-0.151-0.008-0.07-0.019-0.157-0.031-0.262v0c-0.015-0.133-0.04-0.299-0.077-0.498-0.03-0.201-0.089-0.436-0.177-0.704v0c-0.323 0.034-0.647 0.075-0.973 0.124-0.332 0.051-0.622 0.118-0.871 0.199v0c-0.55 0.181-0.882 0.443-0.995 0.785-0.113 0.342-0.082 0.779 0.094 1.309v0c0.054 0.164 0.065 0.287 0.034 0.37-0.031 0.083-0.112 0.146-0.243 0.189v0c-0.321 0.106-0.643 0.034-0.964-0.216-0.331-0.254-0.574-0.617-0.729-1.09z" fill="#e33e33" data-fill-palette-color="accent"></path><path d="M3.037 78.475v0c-0.077-0.258-0.109-0.511-0.097-0.76 0.012-0.248 0.067-0.463 0.164-0.643 0.097-0.18 0.245-0.3 0.444-0.359v0c0.106-0.032 0.213-0.035 0.321-0.009 0.108 0.025 0.18 0.097 0.216 0.216v0c0.018 0.059 0.021 0.131 0.009 0.213v0c-0.035 0.147-0.053 0.329-0.053 0.545-0.002 0.209 0.029 0.423 0.094 0.642v0c0.073 0.245 0.174 0.452 0.305 0.622 0.123 0.172 0.251 0.238 0.383 0.198v0c0.093-0.028 0.14-0.121 0.143-0.28-0.004-0.157-0.029-0.412-0.077-0.765v0c-0.029-0.243-0.05-0.482-0.062-0.716-0.006-0.236 0.04-0.444 0.137-0.624 0.091-0.178 0.268-0.307 0.533-0.386v0c0.264-0.079 0.537-0.081 0.819-0.007 0.286 0.066 0.552 0.22 0.797 0.464 0.25 0.235 0.437 0.561 0.562 0.977v0c0.065 0.218 0.102 0.438 0.11 0.659 0.013 0.212-0.01 0.399-0.07 0.56-0.058 0.168-0.159 0.274-0.305 0.318v0c-0.126 0.037-0.255 0.026-0.389-0.035-0.131-0.054-0.247-0.128-0.346-0.221-0.102-0.099-0.164-0.189-0.188-0.267v0c-0.016-0.053 0.001-0.13 0.05-0.231v0c0.064-0.149 0.095-0.298 0.093-0.449-0.004-0.157-0.026-0.305-0.068-0.444v0c-0.063-0.212-0.148-0.374-0.253-0.486-0.097-0.108-0.195-0.147-0.294-0.118v0c-0.093 0.028-0.149 0.102-0.171 0.224-0.028 0.124-0.027 0.271 0.002 0.442 0.021 0.167 0.043 0.326 0.067 0.477v0c0.063 0.428 0.064 0.78 0.002 1.058-0.068 0.279-0.274 0.47-0.617 0.573v0c-0.264 0.079-0.552 0.082-0.861 0.008-0.31-0.073-0.589-0.224-0.837-0.452-0.257-0.233-0.444-0.548-0.563-0.944z" fill="#e33e33" data-fill-palette-color="accent"></path><path d="M7.703 89.763v0c-0.21-0.396-0.229-0.749-0.057-1.059 0.172-0.31 0.465-0.574 0.879-0.794v0c0.146-0.078 0.297-0.146 0.453-0.205 0.15-0.056 0.3-0.112 0.45-0.168v0c0.156-0.059 0.306-0.115 0.45-0.168 0.144-0.053 0.28-0.105 0.408-0.158v0c-0.108-0.115-0.197-0.239-0.268-0.374v0c-0.074-0.14-0.054-0.241 0.062-0.302v0c0.122-0.065 0.3-0.089 0.535-0.073 0.235 0.016 0.484 0.059 0.749 0.13 0.264 0.071 0.498 0.158 0.7 0.262 0.209 0.1 0.344 0.208 0.406 0.323v0c0.074 0.14-0.01 0.275-0.254 0.404v0c-0.067 0.036-0.136 0.068-0.206 0.098-0.074 0.023-0.15 0.048-0.23 0.075v0c0.089 0.109 0.18 0.221 0.272 0.336 0.083 0.112 0.155 0.226 0.217 0.342v0c0.081 0.152 0.115 0.283 0.101 0.391-0.007 0.105-0.086 0.198-0.238 0.279v0c-0.152 0.081-0.324 0.125-0.516 0.132-0.197 0.011-0.32-0.029-0.368-0.12v0c-0.01-0.018-0.024-0.053-0.044-0.106-0.017-0.046-0.036-0.106-0.06-0.179v0c-0.024-0.089-0.059-0.207-0.106-0.354-0.05-0.138-0.121-0.295-0.215-0.472v0c-0.227 0.058-0.454 0.123-0.68 0.197-0.233 0.077-0.431 0.158-0.596 0.246v0c-0.378 0.2-0.584 0.431-0.618 0.69-0.04 0.263 0.034 0.572 0.221 0.926v0c0.058 0.11 0.085 0.197 0.08 0.262-0.014 0.062-0.067 0.117-0.158 0.165v0c-0.213 0.113-0.451 0.099-0.714-0.043-0.269-0.139-0.487-0.366-0.655-0.683z" fill="#e33e33" data-fill-palette-color="accent"></path><path d="M13.438 98.461v0c-0.074-0.091-0.116-0.177-0.127-0.256-0.011-0.08 0.027-0.142 0.116-0.187v0c0.294-0.131 0.587-0.278 0.879-0.443 0.287-0.161 0.546-0.334 0.776-0.521v0c0.301-0.243 0.506-0.439 0.615-0.589 0.109-0.15 0.165-0.279 0.167-0.387 0.002-0.108-0.018-0.22-0.06-0.337v0c-0.014-0.051-0.021-0.103-0.02-0.157 0.006-0.058 0.033-0.107 0.082-0.146v0c0.081-0.065 0.195-0.104 0.344-0.118 0.149-0.014 0.303 0.008 0.464 0.065 0.166 0.052 0.31 0.153 0.431 0.303v0c0.156 0.193 0.197 0.382 0.124 0.566-0.074 0.183-0.22 0.364-0.441 0.541v0c0.313-0.084 0.6-0.103 0.86-0.055 0.256 0.042 0.474 0.176 0.656 0.401v0c0.126 0.156 0.195 0.313 0.207 0.471 0.013 0.158-0.056 0.298-0.207 0.42v0c-0.156 0.126-0.342 0.192-0.558 0.198-0.212 0.012-0.359-0.034-0.442-0.136v0c-0.017-0.021-0.032-0.045-0.044-0.071-0.012-0.026-0.014-0.055-0.005-0.089v0c0.031-0.149 0.003-0.277-0.084-0.384v0c-0.134-0.166-0.359-0.225-0.673-0.175-0.319 0.044-0.673 0.215-1.063 0.512v0c-0.141 0.122-0.281 0.245-0.422 0.367-0.15 0.121-0.26 0.21-0.33 0.266v0c-0.209 0.169-0.427 0.251-0.652 0.247-0.235-0.005-0.433-0.108-0.593-0.306z" fill="#e33e33" data-fill-palette-color="accent"></path><path d="M21.952 107.267v0c-0.427-0.361-0.656-0.763-0.688-1.206-0.032-0.443 0.137-0.883 0.506-1.32v0c0.334-0.395 0.726-0.682 1.176-0.862 0.446-0.174 0.896-0.236 1.351-0.186 0.46 0.055 0.866 0.231 1.219 0.53v0c0.337 0.285 0.535 0.597 0.592 0.934 0.062 0.333-0.023 0.636-0.254 0.91v0c-0.183 0.216-0.42 0.358-0.714 0.427-0.288 0.073-0.589 0.071-0.903-0.006-0.32-0.081-0.617-0.237-0.891-0.468v0c-0.332-0.281-0.541-0.589-0.628-0.925v0c-0.213 0.263-0.297 0.544-0.253 0.844 0.035 0.301 0.187 0.564 0.456 0.792v0c0.163 0.138 0.354 0.249 0.571 0.334 0.218 0.085 0.432 0.13 0.643 0.137v0c0.137-0.002 0.237 0.024 0.3 0.078v0c0.058 0.049 0.09 0.108 0.096 0.175 0.006 0.068-0.014 0.128-0.059 0.181v0c-0.107 0.126-0.353 0.198-0.738 0.216v0c-0.677 0.042-1.271-0.153-1.782-0.585zM23.742 105.406v0c0.2 0.169 0.402 0.267 0.605 0.295 0.208 0.032 0.368-0.019 0.48-0.15v0c0.089-0.105 0.113-0.225 0.072-0.359-0.041-0.134-0.14-0.267-0.298-0.401v0c-0.205-0.174-0.431-0.27-0.677-0.288-0.242-0.024-0.479 0.033-0.713 0.169v0c0.034 0.119 0.101 0.244 0.2 0.373 0.094 0.134 0.205 0.255 0.331 0.361z" fill="#e33e33" data-fill-palette-color="accent"></path><path d="M31.996 114.095v0c-0.39-0.206-0.64-0.494-0.749-0.864-0.103-0.366-0.035-0.775 0.203-1.227v0c0.171-0.323 0.401-0.611 0.69-0.864 0.299-0.256 0.635-0.449 1.008-0.579 0.383-0.133 0.782-0.188 1.198-0.163 0.419 0.019 0.839 0.139 1.261 0.361v0c0.384 0.203 0.678 0.444 0.882 0.723 0.204 0.279 0.246 0.532 0.126 0.758v0c-0.029 0.055-0.075 0.128-0.139 0.219-0.061 0.085-0.116 0.153-0.166 0.204v0c-0.044 0.039-0.096 0.07-0.155 0.094-0.059 0.023-0.116 0.021-0.171-0.008v0c-0.031-0.016-0.074-0.051-0.132-0.105v0c-0.095 0.121-0.186 0.241-0.272 0.36-0.083 0.128-0.158 0.256-0.226 0.384v0c-0.129 0.244-0.207 0.48-0.234 0.707-0.024 0.237 0.063 0.435 0.26 0.594v0c0.048 0.041 0.085 0.084 0.109 0.127 0.02 0.05 0.01 0.114-0.032 0.194v0c-0.039 0.073-0.105 0.155-0.2 0.246-0.095 0.09-0.213 0.153-0.356 0.186-0.152 0.037-0.32 0.007-0.503-0.09v0c-0.256-0.135-0.403-0.33-0.441-0.584-0.034-0.26 0.039-0.561 0.22-0.902v0c-0.344 0.224-0.704 0.365-1.079 0.425-0.375 0.06-0.742-0.006-1.102-0.196zM32.839 113.253v0c0.256 0.135 0.525 0.172 0.807 0.11 0.285-0.052 0.549-0.174 0.791-0.366v0c0.148-0.117 0.291-0.256 0.43-0.417 0.136-0.17 0.258-0.34 0.363-0.51v0c-0.081-0.113-0.183-0.222-0.307-0.326-0.124-0.105-0.266-0.199-0.424-0.283v0c-0.39-0.206-0.775-0.261-1.154-0.164-0.379 0.097-0.66 0.319-0.843 0.666v0c-0.139 0.262-0.18 0.51-0.123 0.743 0.057 0.233 0.21 0.415 0.46 0.547z" fill="#e33e33" data-fill-palette-color="accent"></path><path d="M43.636 118.876v0c-0.261-0.064-0.354-0.179-0.278-0.345v0c0.147-0.284 0.287-0.58 0.419-0.888 0.13-0.302 0.231-0.597 0.301-0.886v0c0.091-0.375 0.135-0.656 0.13-0.841 0.002-0.184-0.029-0.319-0.092-0.406-0.064-0.087-0.148-0.164-0.253-0.232v0c-0.042-0.032-0.079-0.069-0.111-0.112-0.03-0.05-0.038-0.105-0.024-0.166v0c0.025-0.101 0.092-0.201 0.202-0.302 0.103-0.103 0.239-0.18 0.408-0.231 0.17-0.058 0.349-0.064 0.537-0.018v0c0.241 0.059 0.385 0.183 0.431 0.371 0.053 0.19 0.046 0.423-0.021 0.698v0c-0.042 0.174-0.107 0.368-0.195 0.581-0.087 0.213-0.172 0.402-0.255 0.566v0l0.018 0.015c0.205-0.348 0.43-0.658 0.675-0.933 0.246-0.281 0.514-0.492 0.804-0.634 0.284-0.144 0.583-0.177 0.898-0.101v0c0.322 0.078 0.546 0.25 0.673 0.516 0.135 0.26 0.152 0.601 0.049 1.023v0l-0.057 0.232c0.307-0.387 0.643-0.688 1.009-0.905 0.367-0.223 0.761-0.283 1.184-0.18v0c0.342 0.083 0.579 0.262 0.711 0.535 0.139 0.275 0.167 0.584 0.083 0.926v0c-0.033 0.134-0.078 0.262-0.136 0.382-0.056 0.114-0.119 0.227-0.189 0.338v0c-0.055 0.107-0.11 0.218-0.166 0.332-0.056 0.114-0.099 0.232-0.128 0.352v0c-0.105 0.429 0.009 0.751 0.339 0.967v0c0.042 0.032 0.073 0.064 0.094 0.097 0.027 0.035 0.033 0.083 0.018 0.143v0c-0.016 0.067-0.059 0.156-0.129 0.267-0.07 0.111-0.174 0.203-0.312 0.275-0.14 0.079-0.317 0.093-0.532 0.041v0c-0.275-0.067-0.461-0.222-0.557-0.466-0.105-0.239-0.12-0.512-0.045-0.82v0c0.039-0.161 0.096-0.321 0.17-0.481 0.069-0.168 0.143-0.324 0.221-0.468v0c0.068-0.133 0.131-0.259 0.188-0.38 0.058-0.121 0.098-0.228 0.121-0.322v0c0.042-0.174 0.032-0.308-0.03-0.401-0.068-0.102-0.168-0.169-0.302-0.202v0c-0.228-0.056-0.449-0.035-0.665 0.062-0.215 0.097-0.418 0.243-0.607 0.438-0.196 0.194-0.378 0.416-0.546 0.665v0c-0.008 0.062-0.022 0.147-0.041 0.257-0.025 0.101-0.047 0.191-0.066 0.271v0c-0.033 0.134-0.074 0.273-0.123 0.418-0.056 0.143-0.12 0.258-0.191 0.347v0c-0.093 0.119-0.204 0.21-0.332 0.271-0.135 0.059-0.293 0.067-0.475 0.023v0c-0.08-0.02-0.153-0.055-0.219-0.107-0.059-0.05-0.08-0.108-0.064-0.175v0c0.008-0.034 0.059-0.156 0.154-0.368 0.096-0.218 0.206-0.482 0.332-0.792 0.12-0.319 0.219-0.635 0.295-0.951v0c0.083-0.342 0.107-0.585 0.071-0.728-0.041-0.152-0.132-0.245-0.273-0.28v0c-0.181-0.044-0.37-0.012-0.566 0.097-0.192 0.117-0.383 0.276-0.575 0.477-0.191 0.202-0.365 0.419-0.521 0.651-0.156 0.232-0.291 0.451-0.405 0.657v0l-0.029 0.121c-0.064 0.261-0.186 0.459-0.368 0.592-0.19 0.138-0.409 0.177-0.657 0.117z" fill="#e33e33" data-fill-palette-color="accent"></path><path d="M60.565 121.4v0c-0.511-0.002-0.91-0.159-1.199-0.47-0.289-0.311-0.432-0.747-0.43-1.306v0c0.002-0.545 0.121-1.034 0.357-1.468 0.236-0.434 0.558-0.774 0.966-1.021 0.415-0.247 0.881-0.369 1.399-0.368v0c0.352 0.001 0.631 0.061 0.837 0.179 0.2 0.118 0.299 0.281 0.299 0.488v0c-0.001 0.179-0.088 0.358-0.261 0.537v0c-0.069 0.062-0.156 0.12-0.259 0.175-0.111 0.055-0.193 0.082-0.249 0.082v0c-0.069 0-0.124-0.025-0.165-0.073v0c-0.076-0.083-0.168-0.159-0.279-0.229-0.117-0.076-0.282-0.115-0.496-0.116v0c-0.359-0.001-0.652 0.122-0.881 0.37-0.229 0.241-0.344 0.558-0.345 0.951v0c-0.001 0.359 0.101 0.649 0.307 0.87 0.199 0.221 0.468 0.333 0.806 0.334v0c0.179 0.001 0.373-0.03 0.58-0.091 0.207-0.061 0.39-0.15 0.549-0.267v0c0.083-0.076 0.169-0.113 0.26-0.113v0c0.145 0.001 0.217 0.094 0.216 0.28v0c-0.001 0.241-0.122 0.472-0.365 0.692v0c-0.18 0.165-0.422 0.299-0.726 0.401-0.304 0.109-0.611 0.163-0.921 0.163z" fill="#e33e33" data-fill-palette-color="accent"></path><path d="M72.856 120.154v0c-0.493 0.101-0.916 0.047-1.27-0.162-0.353-0.209-0.583-0.574-0.689-1.095v0c-0.05-0.243-0.065-0.487-0.044-0.73 0.02-0.244 0.067-0.479 0.14-0.705v0c-0.1 0.098-0.18 0.153-0.241 0.166v0c-0.081 0.017-0.148-0.019-0.201-0.107-0.055-0.094-0.092-0.189-0.111-0.283v0c-0.033-0.162-0.026-0.298 0.022-0.407 0.047-0.115 0.099-0.203 0.157-0.264v0c0.122-0.159 0.33-0.349 0.623-0.572 0.286-0.221 0.655-0.377 1.107-0.47v0c0.615-0.126 1.13-0.052 1.546 0.222 0.409 0.275 0.676 0.72 0.802 1.335v0c0.098 0.48 0.087 0.937-0.036 1.37-0.116 0.432-0.329 0.8-0.639 1.104-0.304 0.302-0.693 0.501-1.166 0.598zM72.965 118.99v0.001c0.358-0.074 0.635-0.25 0.832-0.53 0.204-0.274 0.268-0.597 0.192-0.969v0c-0.08-0.392-0.262-0.643-0.546-0.755-0.283-0.111-0.591-0.132-0.922-0.064v0c-0.149 0.031-0.281 0.072-0.397 0.124-0.116 0.052-0.223 0.113-0.321 0.182v0c-0.072 0.163-0.131 0.34-0.176 0.533-0.044 0.199-0.043 0.407 0.001 0.623v0c0.074 0.358 0.237 0.606 0.491 0.744 0.254 0.138 0.536 0.175 0.846 0.112z" fill="#e33e33" data-fill-palette-color="accent"></path><path d="M83.964 116.691v0c-0.245 0.111-0.389 0.078-0.432-0.1v0c-0.059-0.314-0.131-0.633-0.217-0.958-0.083-0.318-0.186-0.612-0.309-0.882v0c-0.159-0.352-0.298-0.6-0.415-0.744-0.112-0.146-0.219-0.234-0.324-0.262-0.104-0.029-0.218-0.038-0.341-0.027v0c-0.053 0.001-0.105-0.006-0.157-0.02-0.055-0.021-0.095-0.059-0.12-0.116v0c-0.043-0.094-0.052-0.215-0.028-0.363 0.018-0.144 0.078-0.289 0.179-0.433 0.098-0.151 0.236-0.266 0.412-0.345v0c0.226-0.102 0.416-0.093 0.568 0.027 0.159 0.117 0.297 0.305 0.414 0.562v0c0.074 0.163 0.142 0.356 0.204 0.578 0.062 0.222 0.112 0.423 0.148 0.603v0l0.033-0.003c-0.021-0.415-0.005-0.815 0.046-1.203 0.052-0.387 0.161-0.732 0.328-1.034 0.172-0.305 0.425-0.533 0.758-0.683v0c0.352-0.159 0.671-0.175 0.956-0.047 0.279 0.131 0.491 0.357 0.636 0.678v0c0.06 0.132 0.101 0.265 0.123 0.399 0.029 0.131 0.051 0.264 0.068 0.401v0c0.014 0.115 0.034 0.234 0.06 0.359 0.035 0.128 0.078 0.249 0.13 0.361v0c0.171 0.377 0.465 0.551 0.883 0.521v0c0.114 0.001 0.188 0.04 0.222 0.115v0c0.028 0.063 0.046 0.161 0.054 0.294 0.013 0.13-0.012 0.267-0.076 0.409-0.061 0.149-0.196 0.27-0.404 0.364v0c-0.264 0.119-0.515 0.116-0.754-0.011-0.23-0.123-0.41-0.329-0.541-0.618v0c-0.077-0.17-0.135-0.348-0.174-0.535-0.039-0.187-0.072-0.361-0.1-0.522v0c-0.026-0.125-0.052-0.249-0.078-0.374-0.023-0.118-0.055-0.221-0.095-0.309v0c-0.139-0.308-0.369-0.389-0.69-0.245v0c-0.277 0.125-0.47 0.334-0.58 0.626-0.114 0.301-0.178 0.637-0.192 1.007-0.005 0.373 0.016 0.739 0.064 1.095v0l0.111 0.246c0.111 0.245 0.136 0.476 0.075 0.693-0.064 0.226-0.213 0.392-0.445 0.496z" fill="#e33e33" data-fill-palette-color="accent"></path><path d="M95.853 110.031v0c-0.214 0.163-0.362 0.163-0.443 0v0c-0.128-0.293-0.27-0.588-0.427-0.885-0.153-0.291-0.319-0.555-0.499-0.79v0c-0.234-0.307-0.425-0.517-0.572-0.631-0.142-0.118-0.266-0.179-0.374-0.183-0.108-0.005-0.221 0.012-0.339 0.05v0c-0.051 0.013-0.103 0.018-0.157 0.016-0.058-0.008-0.106-0.036-0.144-0.086v0c-0.063-0.082-0.099-0.198-0.108-0.347-0.015-0.145 0.011-0.299 0.077-0.462 0.062-0.169 0.17-0.312 0.323-0.429v0c0.197-0.151 0.384-0.185 0.56-0.102 0.181 0.079 0.358 0.23 0.53 0.455v0c0.109 0.143 0.218 0.315 0.329 0.517 0.111 0.202 0.204 0.387 0.28 0.555v0l0.031-0.011c-0.114-0.399-0.189-0.793-0.225-1.182-0.036-0.389-0.007-0.749 0.086-1.081 0.099-0.336 0.294-0.615 0.586-0.837v0c0.307-0.234 0.614-0.321 0.921-0.26 0.301 0.065 0.559 0.238 0.772 0.518v0c0.088 0.115 0.158 0.235 0.21 0.36 0.058 0.121 0.11 0.246 0.156 0.376v0c0.04 0.109 0.086 0.221 0.139 0.336 0.063 0.117 0.132 0.225 0.208 0.323v0c0.251 0.329 0.577 0.432 0.977 0.309v0c0.112-0.024 0.192-0.004 0.243 0.062v0c0.042 0.055 0.081 0.146 0.118 0.274 0.042 0.124 0.048 0.262 0.018 0.416-0.026 0.159-0.13 0.307-0.311 0.446v0c-0.23 0.176-0.476 0.229-0.738 0.159-0.252-0.068-0.474-0.229-0.666-0.481v0c-0.113-0.148-0.209-0.309-0.29-0.482-0.08-0.173-0.152-0.335-0.215-0.487v0c-0.053-0.115-0.107-0.231-0.16-0.346-0.049-0.11-0.103-0.203-0.162-0.28v0c-0.205-0.269-0.447-0.297-0.727-0.084v0c-0.241 0.184-0.383 0.431-0.424 0.741-0.043 0.319-0.03 0.66 0.039 1.024 0.079 0.365 0.182 0.716 0.309 1.053v0l0.163 0.214c0.163 0.214 0.239 0.433 0.229 0.658-0.012 0.235-0.119 0.429-0.323 0.585z" fill="#e33e33" data-fill-palette-color="accent"></path><path d="M106.663 100.066v0c-0.362 0.426-0.764 0.654-1.207 0.686-0.443 0.031-0.882-0.139-1.319-0.51v0c-0.394-0.335-0.681-0.728-0.859-1.178-0.173-0.446-0.234-0.896-0.183-1.35 0.056-0.46 0.233-0.866 0.532-1.218v0c0.286-0.337 0.598-0.533 0.936-0.59 0.333-0.061 0.636 0.024 0.909 0.256v0c0.216 0.183 0.357 0.421 0.425 0.714 0.072 0.288 0.07 0.589-0.007 0.904-0.082 0.32-0.239 0.617-0.471 0.89v0c-0.281 0.331-0.59 0.54-0.925 0.626v0c0.262 0.214 0.543 0.298 0.842 0.254 0.301-0.034 0.565-0.185 0.793-0.453v0c0.138-0.163 0.25-0.353 0.336-0.571 0.085-0.217 0.131-0.432 0.138-0.643v0c-0.001-0.137 0.025-0.237 0.078-0.3v0c0.049-0.058 0.108-0.09 0.176-0.095 0.068-0.006 0.128 0.014 0.181 0.059v0c0.126 0.107 0.198 0.353 0.215 0.739v0c0.04 0.677-0.156 1.271-0.59 1.78zM104.807 98.272v0c0.17-0.2 0.268-0.401 0.296-0.604 0.032-0.208-0.018-0.368-0.15-0.48v0c-0.105-0.089-0.225-0.114-0.358-0.074-0.134 0.04-0.268 0.139-0.402 0.297v0c-0.174 0.205-0.271 0.431-0.29 0.677-0.024 0.242 0.032 0.48 0.168 0.714v0c0.12-0.034 0.244-0.101 0.373-0.2 0.134-0.094 0.255-0.204 0.363-0.33z" fill="#e33e33" data-fill-palette-color="accent"></path><path d="M113.605 89.907v0c-0.244 0.448-0.572 0.726-0.982 0.831-0.411 0.106-0.862 0.026-1.353-0.241v0c-0.479-0.261-0.853-0.598-1.123-1.011-0.27-0.414-0.416-0.859-0.44-1.335-0.02-0.482 0.093-0.951 0.341-1.406v0c0.168-0.309 0.353-0.526 0.555-0.652 0.199-0.12 0.389-0.13 0.57-0.031v0c0.158 0.086 0.274 0.247 0.349 0.484v0c0.022 0.09 0.032 0.194 0.031 0.312-0.004 0.123-0.02 0.209-0.046 0.258v0c-0.033 0.061-0.081 0.098-0.142 0.11v0c-0.109 0.027-0.22 0.073-0.334 0.137-0.123 0.067-0.235 0.194-0.337 0.382v0c-0.171 0.315-0.203 0.632-0.094 0.951 0.103 0.315 0.328 0.567 0.673 0.755v0c0.315 0.171 0.619 0.219 0.912 0.142 0.29-0.07 0.515-0.254 0.677-0.55v0c0.086-0.158 0.151-0.342 0.195-0.554 0.044-0.211 0.053-0.415 0.026-0.61v0c-0.027-0.109-0.019-0.203 0.024-0.282v0c0.069-0.127 0.186-0.146 0.349-0.057v0c0.212 0.115 0.357 0.332 0.436 0.649v0c0.06 0.237 0.062 0.513 0.008 0.829-0.048 0.319-0.146 0.615-0.295 0.889z" fill="#e33e33" data-fill-palette-color="accent"></path><path d="M118.3 78.706v0c-0.133 0.428-0.37 0.69-0.711 0.787-0.341 0.096-0.735 0.075-1.183-0.065v0c-0.158-0.049-0.313-0.108-0.465-0.177-0.145-0.067-0.291-0.134-0.436-0.201v0c-0.152-0.069-0.297-0.136-0.436-0.201-0.139-0.065-0.272-0.124-0.4-0.178v0c-0.006 0.157-0.031 0.308-0.076 0.453v0c-0.047 0.152-0.133 0.208-0.258 0.169v0c-0.132-0.041-0.275-0.15-0.429-0.329-0.154-0.178-0.299-0.386-0.435-0.623-0.136-0.237-0.238-0.464-0.308-0.681-0.076-0.219-0.095-0.391-0.057-0.516v0c0.047-0.152 0.202-0.186 0.466-0.104v0c0.072 0.023 0.144 0.048 0.215 0.077 0.068 0.036 0.14 0.072 0.215 0.111v0c0.015-0.14 0.03-0.283 0.047-0.43 0.021-0.138 0.051-0.269 0.09-0.395v0c0.051-0.165 0.12-0.281 0.206-0.347 0.079-0.069 0.201-0.078 0.366-0.027v0c0.165 0.051 0.317 0.142 0.457 0.272 0.147 0.132 0.205 0.248 0.174 0.347v0c-0.006 0.02-0.021 0.055-0.044 0.105-0.021 0.044-0.049 0.1-0.085 0.169v0c-0.046 0.079-0.105 0.188-0.177 0.324-0.063 0.132-0.124 0.294-0.183 0.485v0c0.201 0.12 0.407 0.235 0.619 0.344 0.218 0.111 0.416 0.195 0.594 0.25v0c0.408 0.127 0.717 0.111 0.926-0.048 0.215-0.157 0.382-0.427 0.5-0.809v0c0.037-0.119 0.08-0.199 0.13-0.241 0.054-0.034 0.13-0.035 0.229-0.005v0c0.231 0.072 0.388 0.251 0.472 0.537 0.091 0.288 0.083 0.604-0.023 0.947z" fill="#e33e33" data-fill-palette-color="accent"></path><path d="M0.126 60.996c0-1.537 1.246-2.783 2.783-2.783 1.537 0 2.783 1.246 2.783 2.783 0 1.537-1.246 2.783-2.783 2.783-1.537 0-2.783-1.246-2.783-2.783z" fill="#e33e33" data-fill-palette-color="accent"></path><path d="M115.707 60.996c0-1.537 1.246-2.783 2.783-2.783 1.537 0 2.783 1.246 2.783 2.783 0 1.537-1.246 2.783-2.783 2.783-1.537 0-2.783-1.246-2.783-2.783z" fill="#e33e33" data-fill-palette-color="accent"></path></g><g id="text-1"></g></svg></g></svg></g></svg></g><defs></defs></svg><rect width="395.5199999999999" height="89.46134161113588" fill="none" stroke="none" visibility="hidden"></rect></g></svg></g></svg>